<svg width="411" height="265" viewBox="0 0 411 265" fill="none" xmlns="http://www.w3.org/2000/svg">
<path d="M202.829 128.951C202.88 128.951 203.651 129.311 204.473 129.722C205.5 130.236 206.476 131.417 207.298 133.215C208.017 134.654 208.583 136.503 208.583 138.712L211.254 136.349C212.744 135.065 214.439 133.883 215.004 133.729C215.57 133.575 216.34 133.575 216.648 133.78C217.008 133.935 217.676 134.808 218.087 135.63C218.498 136.452 219.012 138.507 219.166 140.151C219.474 142.977 219.577 143.079 220.861 142.874C221.58 142.771 222.916 143.079 223.738 143.49C224.56 143.901 226.05 145.032 226.923 146.008C227.848 146.932 229.492 149.398 232.472 155.152L233.962 150.426C234.784 147.806 235.863 144.775 236.376 143.696C237.044 142.411 237.815 141.692 238.74 141.487C239.562 141.281 241 141.384 241.976 141.692C242.952 142 244.648 143.182 245.675 144.312C246.754 145.494 247.833 146.984 248.141 147.703C248.398 148.422 248.655 149.964 248.655 151.145C248.655 152.43 248.244 154.022 247.628 154.998C247.062 155.923 246.651 156.848 246.703 157.002C246.806 157.156 247.782 157.002 248.912 156.642C250.196 156.231 251.994 154.947 253.793 153.149C255.385 151.556 258.622 147.857 261.036 144.877C264.427 140.665 265.66 139.483 266.636 139.483C267.664 139.483 267.972 139.791 268.075 141.024C268.178 142 267.664 143.644 265.095 148.474H266.893C267.869 148.474 271.157 148.114 274.188 147.652C277.271 147.189 280.97 146.932 282.563 147.087C284.669 147.343 285.594 147.703 286.313 148.576C286.981 149.45 287.238 150.631 287.186 156.694L288.83 156.129C289.755 155.769 291.656 155.666 293.094 155.82C294.482 155.974 296.228 156.54 296.948 157.053C297.667 157.618 298.746 159.057 299.414 160.341C300.236 161.934 300.544 163.527 300.544 165.684C300.544 167.38 300.338 169.537 300.03 170.411C299.516 172.055 299.67 172.26 302.496 175.291C304.191 177.09 305.887 179.299 306.349 180.172C306.863 181.097 307.12 182.278 306.966 182.741C306.812 183.306 307.223 184.179 308.045 184.95C308.764 185.669 309.894 187.159 310.459 188.289C311.333 189.882 311.589 191.218 311.589 194.454C311.538 198.051 311.333 199.129 309.586 203.188C308.507 205.705 305.99 211.151 303.883 215.261C301.828 219.371 298.848 225.022 297.204 227.848C295.612 230.674 292.067 236.325 289.344 240.435C285.645 245.983 283.025 249.271 278.966 253.33C275.987 256.31 270.9 260.728 267.664 263.143C264.427 265.557 260.369 268.28 258.673 269.154C256.978 270.078 255.385 270.592 255.18 270.387C254.923 270.181 254.82 269.565 254.923 269.102C255.026 268.64 259.136 263.348 264.068 257.286C269.051 251.275 274.959 243.928 277.22 240.949C279.48 237.969 282.306 234.167 283.436 232.472C284.566 230.776 286.005 228.413 286.621 227.18C287.186 225.999 287.7 224.611 287.7 224.098C287.7 223.635 287.135 222.916 286.416 222.556C285.696 222.248 284.258 221.94 283.179 221.94C282.152 221.94 279.223 222.3 276.654 222.711C274.086 223.122 269.719 224.046 266.893 224.766C264.068 225.485 258.827 226.975 255.18 228.105C249.888 229.749 248.45 230.417 247.628 231.547C247.114 232.369 246.292 234.732 245.881 236.839C245.47 238.945 244.751 243.466 244.288 246.857C243.826 250.248 243.055 254.152 242.593 255.591C242.028 257.286 240.846 259.084 239.151 260.779C237.712 262.218 235.657 263.862 232.472 265.455L237.866 266.277C240.846 266.739 245.162 267.664 247.473 268.383C250.71 269.41 252.303 270.232 253.895 271.774C255.128 272.853 256.926 274.086 257.903 274.394C259.033 274.805 264.016 275.062 271.517 275.164C280.764 275.319 283.333 275.473 283.333 275.986C283.333 276.5 281.689 276.706 276.911 276.911C273.366 277.065 267.715 277.014 264.324 276.86C260.523 276.654 257.44 276.192 256.207 275.678C255.18 275.216 253.998 274.342 253.587 273.675C253.176 273.058 251.635 271.979 250.094 271.311C248.604 270.643 245.778 269.719 243.774 269.205C241.771 268.691 237.866 267.972 235.041 267.664C230.16 267.047 229.749 267.099 226.204 268.229C223.122 269.256 222.351 269.359 221.837 268.794C221.272 268.229 221.375 267.921 222.197 267.201C222.762 266.739 224.714 266.071 226.564 265.711C228.413 265.352 231.188 264.376 232.729 263.451C234.27 262.578 236.325 261.242 237.301 260.523C238.226 259.803 239.459 258.365 239.921 257.389C240.435 256.413 241.103 254.666 241.411 253.536C241.668 252.405 242.285 248.604 242.747 245.059C243.158 241.514 243.774 237.455 244.134 236.068C244.442 234.63 245.11 232.626 245.624 231.547C246.189 230.52 247.217 229.338 247.987 228.927C248.809 228.516 252.303 227.283 255.848 226.153C259.392 225.022 264.119 223.635 266.379 223.019C268.64 222.454 272.339 221.632 274.599 221.169C276.86 220.758 280.405 220.399 282.408 220.399C284.463 220.399 286.724 220.707 287.443 221.015C288.162 221.375 288.933 222.197 289.241 222.813C289.601 223.687 289.55 224.611 288.933 226.153C288.522 227.386 287.186 229.852 286.056 231.701C284.874 233.551 282.563 236.89 280.816 239.151C279.12 241.411 273.777 248.09 269 253.998C264.17 259.906 259.803 265.249 259.29 265.917C258.827 266.585 258.519 267.15 258.673 267.15C258.827 267.15 260.369 266.174 262.115 264.992C263.913 263.811 266.482 261.91 267.921 260.779C269.308 259.649 272.288 257.183 274.548 255.334C276.757 253.484 280.148 250.042 282.049 247.627C283.95 245.213 286.621 241.514 288.06 239.407C289.447 237.301 292.118 233.037 293.968 229.903C295.817 226.769 298.797 221.375 300.647 217.83C302.547 214.285 305.219 208.737 306.657 205.5C308.096 202.263 309.534 198.307 309.843 196.766C310.356 194.403 310.305 193.478 309.637 191.115C309.123 189.317 308.147 187.57 307.017 186.337C305.373 184.693 304.962 184.488 303.472 184.744C302.445 184.95 301.674 184.847 301.417 184.488C301.212 184.179 301.366 183.563 301.674 183.152C302.034 182.689 302.958 182.33 303.729 182.381C304.654 182.381 305.168 182.124 305.168 181.611C305.168 181.2 303.626 179.196 301.674 177.192C298.797 174.161 298.026 173.596 296.948 173.802C296.228 173.956 294.379 173.853 292.838 173.596C291.194 173.339 289.601 172.671 288.984 172.106C288.317 171.387 288.111 170.873 288.471 170.565C288.728 170.308 289.704 169.846 290.526 169.589C291.656 169.281 292.838 169.383 294.893 170.051C296.999 170.77 297.821 170.822 298.078 170.411C298.283 170.051 298.592 168.87 298.797 167.739C298.951 166.609 298.848 164.503 298.54 163.116C298.181 161.677 297.667 160.136 297.307 159.673C296.948 159.16 295.766 158.44 294.636 158.029C293.505 157.618 291.656 157.413 290.526 157.567C289.395 157.721 288.008 157.978 287.443 158.235C286.878 158.44 286.159 159.468 285.799 160.598C285.491 161.728 284.72 163.064 284.155 163.629C283.23 164.554 283.025 164.554 282.306 163.886C281.843 163.475 281.484 162.602 281.535 161.934C281.535 161.317 282.357 160.033 283.333 159.108C284.926 157.67 285.131 157.105 285.44 154.125C285.645 151.556 285.542 150.529 284.977 149.758C284.309 148.885 283.641 148.731 280.662 148.833C278.761 148.885 275.781 149.142 274.086 149.45C272.39 149.758 269.565 150.066 267.818 150.169C265.557 150.22 264.376 150.066 263.759 149.501C262.989 148.782 263.04 148.525 264.53 145.751C265.403 144.158 266.071 142.514 265.968 142.155C265.866 141.846 263.965 143.85 261.704 146.676C259.392 149.501 256.515 152.892 255.282 154.176C254.049 155.461 252.303 156.899 251.481 157.31C250.659 157.773 248.552 158.543 246.857 159.006C245.162 159.519 243.466 160.136 243.055 160.495C242.644 160.804 241.411 162.448 240.332 164.143C239.253 165.838 238.072 168.048 237.764 169.024C237.301 170.411 237.353 171.181 237.918 172.517C238.329 173.442 238.74 174.213 238.894 174.161C239.048 174.161 239.716 172.98 240.435 171.541C241.154 170.103 242.439 168.099 243.261 167.123C244.083 166.095 246.189 164.349 247.884 163.167C249.58 162.037 253.022 160.136 255.591 158.954C258.108 157.721 261.602 156.385 263.297 155.923C264.992 155.512 267.407 155.152 268.691 155.152C270.181 155.152 271.62 155.563 272.75 156.334C274.497 157.464 274.497 157.464 274.24 160.804C274.086 163.116 273.418 165.325 272.185 167.996C271.209 170.103 269.411 173.339 268.126 175.189C266.431 177.706 266.123 178.425 266.893 178.066C267.458 177.86 269.411 177.346 271.26 176.935C273.11 176.576 275.884 176.216 277.425 176.268C278.966 176.268 281.997 176.576 284.104 176.935C286.21 177.346 289.344 178.168 291.039 178.836C293.094 179.607 294.995 180.891 296.793 182.587C298.643 184.436 299.568 185.875 299.979 187.365C300.441 189.214 300.749 189.574 301.828 189.574C302.547 189.574 303.883 190.293 304.911 191.218C305.938 192.142 306.863 193.53 306.966 194.3C307.12 195.122 306.812 196.561 306.298 197.588C305.784 198.718 304.602 199.951 303.369 200.671C302.239 201.287 299.259 202.52 296.691 203.445C294.122 204.318 288.573 206.065 284.361 207.247C280.097 208.48 273.521 210.175 269.719 211.048C265.917 211.922 259.649 213.206 255.848 213.925C252.046 214.593 245.675 215.672 241.719 216.237C237.764 216.802 230.828 217.676 226.307 218.087C221.786 218.549 212.179 219.012 204.986 219.114C197.794 219.217 189.009 219.063 185.464 218.857C181.919 218.601 177.192 218.292 174.932 218.087C172.671 217.933 167.123 217.316 162.602 216.751C158.081 216.186 151.248 215.107 147.446 214.439C143.645 213.72 137.377 212.384 133.575 211.408C129.773 210.432 124.43 208.942 121.759 208.069C119.087 207.195 114.72 205.449 112.1 204.216C108.35 202.366 107.22 201.544 106.552 200.208C105.781 198.718 105.781 198.462 106.552 197.023C107.014 196.201 108.144 195.019 109.069 194.454C109.943 193.941 111.535 193.067 112.511 192.553C113.487 192.091 114.053 191.68 113.796 191.629C113.487 191.629 111.895 192.091 110.199 192.656C108.504 193.273 105.884 194.403 104.394 195.225C102.956 196.098 101.466 197.229 101.209 197.794C100.798 198.564 101.055 199.746 102.288 202.777C103.11 204.986 105.37 209.559 107.22 212.949C109.069 216.34 112.1 221.529 113.95 224.509C115.799 227.488 119.447 232.934 122.067 236.582C124.687 240.229 128.746 245.572 131.109 248.398C133.421 251.224 137.428 255.642 139.997 258.159C142.514 260.728 146.213 264.016 148.217 265.455C150.221 266.944 153.406 269.102 159.006 272.287L178.785 271.465C189.677 271.054 207.812 270.643 219.114 270.643C231.804 270.592 241.36 270.798 244.031 271.157C246.446 271.517 249.117 271.979 249.939 272.236C250.761 272.544 251.635 273.109 251.84 273.572C252.097 273.983 252.046 274.753 251.789 275.216C251.583 275.73 250.094 276.706 248.604 277.374C247.062 278.041 243.62 279.018 240.949 279.531C238.277 280.045 233.397 280.713 230.16 281.073C226.923 281.381 218.344 281.638 211.151 281.638C202.52 281.638 195.328 281.381 190.088 280.816C185.721 280.353 179.093 279.326 175.446 278.607C171.798 277.887 166.558 276.552 163.886 275.678C159.16 274.137 158.8 274.086 153.098 274.394C149.861 274.599 143.953 274.856 139.997 274.959C135.527 275.062 132.702 274.908 132.548 274.599C132.393 274.291 133.318 273.931 134.603 273.777C135.887 273.572 141.024 273.212 146.059 273.007C151.043 272.75 155.153 272.39 155.153 272.133C155.153 271.928 154.639 271.62 153.971 271.414C153.354 271.26 150.632 269.41 147.96 267.355C145.289 265.352 140.305 260.831 136.914 257.286C133.524 253.792 128.849 248.501 126.588 245.572C124.276 242.593 120.526 237.507 118.265 234.27C116.005 231.033 112.357 225.331 110.199 221.683C107.99 218.035 104.702 211.973 102.904 208.326C101.106 204.678 99.462 200.773 99.2565 199.746C98.9483 198.051 99.1024 197.64 100.438 196.252C101.26 195.379 102.904 194.095 104.034 193.427C105.165 192.759 107.888 191.629 110.045 190.909C112.254 190.19 114.566 189.574 115.183 189.574C115.851 189.574 116.621 189.831 116.981 190.19C117.289 190.55 117.443 191.166 117.238 191.577C117.032 191.988 115.491 192.964 113.796 193.838C112.1 194.66 110.097 195.79 109.275 196.304C108.247 197.023 107.939 197.64 107.99 198.667C108.093 199.695 108.71 200.362 110.456 201.39C111.741 202.161 114.823 203.599 117.392 204.575C119.909 205.603 124.995 207.247 128.694 208.274C132.342 209.302 138.61 210.792 142.566 211.614C146.522 212.487 153.92 213.72 159.006 214.439C164.092 215.158 171.13 216.032 174.675 216.391C178.785 216.802 188.135 217.059 200.876 217.059C216.289 217.059 222.351 216.854 228.362 216.135C232.575 215.672 237.558 215.004 239.408 214.747C241.257 214.491 245.778 213.771 249.426 213.206C253.073 212.59 258.776 211.562 262.013 210.894C265.249 210.226 269.976 209.199 272.544 208.582C275.113 207.966 279.994 206.682 283.436 205.757C286.929 204.781 292.016 203.188 294.738 202.212C297.513 201.287 300.595 200.106 301.571 199.592C302.547 199.129 303.78 198.307 304.294 197.845C304.808 197.383 305.219 196.304 305.219 195.482C305.219 194.66 304.808 193.427 304.294 192.759C303.78 192.091 302.702 191.526 301.88 191.475C300.492 191.372 300.287 191.577 299.825 193.427C299.516 194.557 298.592 196.201 297.718 197.126C296.896 198.051 295.663 198.77 294.995 198.821C294.122 198.821 293.865 198.513 293.865 197.537C293.865 196.818 294.43 195.379 295.098 194.3C295.766 193.273 296.793 191.937 297.41 191.372C298.026 190.807 298.54 189.779 298.54 189.06C298.54 188.341 297.975 186.954 297.359 186.029C296.691 185.053 295.149 183.46 293.865 182.484C292.581 181.559 290.063 180.275 288.214 179.71C286.005 178.99 282.974 178.528 279.223 178.374C275.01 178.22 272.699 178.374 270.233 178.99C268.383 179.453 265.712 180.583 264.324 181.559C262.424 182.792 261.396 183.922 260.42 186.029C259.701 187.57 258.725 189.985 258.262 191.372C257.851 192.81 257.337 194.506 257.183 195.225C256.926 196.458 257.029 196.561 261.139 197.434C263.451 197.896 266.379 198.821 267.664 199.489C269.256 200.26 270.027 200.979 270.078 201.801C270.181 202.52 269.616 203.548 268.537 204.627C267.612 205.551 265.609 206.682 264.068 207.195C262.526 207.658 260.625 208.069 259.803 208.069C259.033 208.069 257.954 207.863 257.389 207.555C256.824 207.247 256.002 206.219 255.591 205.243C255.18 204.267 254.82 202.315 254.82 200.876C254.82 199.027 254.615 198.256 254.049 198.051C253.638 197.896 252.919 197.794 252.508 197.794C251.943 197.794 251.738 198.41 251.738 200.26C251.789 201.904 251.327 203.548 250.35 205.449C249.272 207.606 248.347 208.531 246.6 209.507C244.494 210.637 244.134 210.689 242.541 210.072C241.206 209.559 240.486 208.788 239.819 207.195C239.151 205.603 238.997 204.37 239.202 202.828C239.408 201.595 239.87 200.003 240.23 199.232C240.641 198.41 241.565 197.485 242.336 197.074C243.158 196.663 244.751 196.252 245.984 196.15C247.165 196.047 248.141 195.893 248.141 195.739C248.141 195.585 247.576 195.174 246.857 194.865C246.138 194.506 244.802 194.197 243.877 194.197C243.004 194.197 241.514 194.66 240.692 195.174C239.87 195.687 238.329 197.28 237.301 198.616C236.325 200.003 234.63 202.726 233.551 204.729C232.472 206.733 231.29 208.634 230.982 208.993C230.674 209.353 230.006 209.661 229.492 209.61C228.927 209.61 227.848 208.069 226.256 204.832C224.971 202.263 223.173 199.027 222.248 197.691C220.707 195.276 220.604 195.225 218.087 195.225C216.648 195.225 212.949 195.687 209.867 196.252C206.733 196.818 204.062 197.588 203.856 197.896C203.651 198.256 203.24 199.592 202.983 200.876C202.726 202.161 202.366 204.267 201.904 208.069H203.805C204.884 208.069 206.065 208.326 206.425 208.685C206.784 209.045 207.041 209.764 207.041 210.278C207.041 210.74 206.528 211.511 205.86 211.922C205.243 212.333 204.113 212.692 203.291 212.692C202.418 212.692 201.596 212.23 200.979 211.459C200.106 210.226 200.106 210.226 196.612 210.946C194.711 211.357 192.81 211.562 192.399 211.408C191.783 211.203 191.629 210.226 191.732 206.425C191.834 202.417 191.68 201.339 190.755 199.592C190.139 198.462 189.111 196.972 188.444 196.304C187.827 195.585 185.772 194.043 183.923 192.862C182.073 191.68 179.196 190.036 177.501 189.163C175.805 188.341 172.928 187.21 171.079 186.748C168.767 186.132 166.506 185.926 163.629 186.08C160.701 186.234 158.8 186.697 156.951 187.57C155.358 188.341 153.817 189.625 152.738 191.115C151.865 192.399 150.632 194.711 150.015 196.252C149.45 197.794 148.679 200.671 148.32 202.572C147.806 205.603 147.806 206.116 148.474 206.527C148.885 206.733 152.943 207.452 157.464 208.069C161.985 208.685 165.736 209.096 165.839 208.993C165.89 208.891 164.76 208.017 163.321 207.041C161.831 206.065 160.085 204.524 159.365 203.702C158.286 202.366 158.132 201.75 158.286 199.232C158.441 197.331 158.852 195.841 159.571 194.865C160.187 194.095 161.215 193.375 161.883 193.273C162.756 193.119 163.578 193.581 164.657 194.814C165.53 195.739 167.02 197.948 169.794 202.931L171.593 199.232C172.98 196.355 173.648 195.43 174.521 195.328C175.292 195.276 176.011 195.636 176.473 196.355C176.884 197.023 177.244 198.102 177.244 198.821C177.244 199.54 176.884 201.184 176.473 202.52C176.062 203.907 175.805 204.986 175.959 204.986C176.114 204.986 177.655 204.061 179.402 202.931C181.2 201.801 182.998 200.825 183.409 200.825C183.82 200.825 184.436 201.133 184.796 201.493C185.104 201.852 185.721 203.188 186.183 204.472C186.645 205.757 187.005 207.555 187.005 208.428C187.005 209.61 186.645 210.329 185.823 210.843C185.207 211.254 183.203 211.768 181.354 211.922C179.453 212.127 174.675 211.922 170.308 211.459C166.044 211.048 159.571 210.432 155.923 210.072C152.276 209.764 148.525 209.148 147.703 208.737C146.881 208.377 144.056 207.658 141.538 207.195C138.969 206.733 135.99 205.962 134.859 205.5C133.729 204.986 131.417 203.548 129.722 202.263C128.027 200.979 125.92 199.078 125.047 197.999C124.173 196.869 123.095 195.276 122.684 194.454C122.273 193.632 121.759 192.348 121.605 191.629C121.451 190.909 120.474 189.471 119.498 188.392C118.265 187.159 117.495 185.721 117.238 184.282C117.032 183.1 117.032 181.097 117.238 179.812C117.495 178.528 118.317 176.319 120.629 172.363L117.7 171.695C116.108 171.336 114.104 170.616 113.282 170.103C112.409 169.589 111.227 168.15 110.61 166.917C109.737 165.171 109.583 164.297 109.943 163.116C110.199 162.294 111.33 160.752 112.409 159.776C113.487 158.8 115.131 157.618 117.649 156.437L117.854 151.042C117.957 148.063 118.317 144.775 118.625 143.696C118.933 142.668 119.755 141.076 120.474 140.254C121.194 139.38 122.273 138.712 122.889 138.712C123.557 138.712 124.841 139.226 125.817 139.843C126.794 140.511 128.438 142.206 129.414 143.696C131.16 146.162 131.315 146.316 132.291 145.597C132.856 145.186 134.037 144.877 134.859 144.877C135.681 144.877 137.428 145.391 138.661 146.059C139.946 146.676 141.898 148.217 143.028 149.501C144.21 150.786 145.7 153.149 147.703 157.67L150.786 157.413C152.532 157.207 154.485 157.362 155.255 157.67C156.077 157.978 157.002 158.8 157.978 160.701L161.318 159.417C163.218 158.697 166.301 158.029 168.51 157.875C171.13 157.67 173.596 157.824 176.216 158.389C178.785 158.971 181.097 159.913 183.152 161.215C184.847 162.294 186.954 164.04 189.317 167.02L194.352 167.123C198.102 167.226 199.592 167.02 200.003 166.506C200.363 166.147 201.441 165.427 202.418 164.914C203.394 164.4 205.706 163.578 207.555 163.116C209.867 162.499 212.23 162.294 215.261 162.448C218.858 162.602 220.245 162.91 223.07 164.297C225.69 165.53 227.026 166.558 228.413 168.356C229.389 169.743 230.571 171.952 231.033 173.391C231.444 174.778 231.907 178.271 232.061 181.097C232.266 184.488 232.164 186.645 231.753 187.365C231.444 188.032 230.777 188.495 230.314 188.392C229.852 188.341 229.287 187.57 229.03 186.748C228.773 185.926 228.105 183.46 227.54 181.354C226.923 179.247 225.999 176.576 224.406 173.391L223.379 174.675C222.813 175.394 222.146 176.884 221.889 178.014C221.632 179.145 221.169 180.583 220.913 181.2C220.604 181.867 220.039 182.33 219.525 182.227C218.909 182.176 218.395 181.251 217.933 179.556C217.573 178.117 216.957 176.011 216.546 174.778C216.083 173.545 215.467 172.62 215.004 172.62C214.593 172.62 213.874 173.442 213.463 174.418C213.052 175.394 212.693 177.706 212.693 179.556C212.693 182.844 212.641 182.895 211.254 183.049C209.97 183.152 210.072 183.306 212.949 185.155C214.645 186.286 217.419 187.724 219.114 188.443C220.81 189.111 223.481 189.882 225.023 190.139C226.872 190.498 228.362 190.447 229.389 190.139C230.211 189.831 231.444 188.957 232.01 188.187C232.626 187.365 234.013 184.899 235.195 182.638C236.325 180.378 237.353 178.014 237.558 177.346C237.764 176.627 237.507 175.6 236.839 174.572C236.274 173.596 235.811 171.952 235.811 170.719C235.811 169.486 236.171 167.739 236.633 166.866C237.096 165.941 238.226 164.143 240.743 160.547L233.037 160.752C226.101 160.906 224.868 160.804 217.573 158.595L209.867 159.468C205.603 159.93 200.825 160.29 199.181 160.29C197.588 160.29 194.454 159.93 192.245 159.468C190.088 159.006 187.365 158.286 186.234 157.824C185.104 157.413 182.946 156.231 181.405 155.204C179.864 154.176 178.066 152.532 177.398 151.556C176.679 150.477 176.114 148.885 176.062 147.652C176.011 146.11 176.268 145.186 176.987 144.415C177.552 143.799 178.58 143.285 179.299 143.285C180.018 143.285 181.2 143.747 181.97 144.364C182.792 144.929 183.512 145.237 183.614 145.032C183.717 144.775 183.923 143.85 184.128 142.977C184.282 142 185.053 140.819 185.823 140.202C186.8 139.483 187.673 139.278 188.546 139.483C189.266 139.637 190.858 140.408 194.454 142.617L195.328 138.764C195.893 136.349 196.818 133.986 197.794 132.65C198.616 131.417 200.054 130.081 200.979 129.722C201.904 129.311 202.726 129.003 202.777 128.951H202.829Z" fill="#D1AF9E"/>
<path fill-rule="evenodd" clip-rule="evenodd" d="M202.366 131.006C202.829 131.006 203.702 131.366 204.37 131.777C204.986 132.188 205.757 133.421 206.065 134.5C206.425 135.578 206.528 137.633 206.322 139.329C206.168 141.127 206.219 142.411 206.528 142.565C206.836 142.72 208.788 141.23 210.894 139.226C213.001 137.222 215.107 135.63 215.518 135.63C215.929 135.63 216.546 136.195 216.803 136.914C217.111 137.633 217.316 139.483 217.316 141.024C217.316 143.747 217.214 143.953 214.696 146.573C213.206 148.011 211.614 150.118 211.1 151.145C210.535 152.224 210.124 153.56 210.124 154.125C210.124 154.69 210.432 155.306 210.792 155.461C211.1 155.615 212.076 155.461 212.898 155.101C213.669 154.69 214.953 153.56 215.672 152.584C216.392 151.607 217.522 149.501 218.087 147.96C219.114 145.288 219.269 145.134 221.067 144.98C222.248 144.929 223.481 145.237 224.406 145.802C225.177 146.367 226.564 147.96 227.489 149.398C228.362 150.888 229.595 153.149 230.109 154.484C230.622 155.872 231.444 157.156 231.907 157.464C232.523 157.875 232.883 157.721 233.448 156.95C233.859 156.385 234.989 153.2 236.017 149.861C237.455 145.186 238.123 143.747 239.048 143.285C239.973 142.822 240.589 142.925 242.387 143.798C243.569 144.415 245.007 145.648 245.573 146.573C246.086 147.446 246.703 148.936 246.908 149.758C247.062 150.58 246.96 152.121 246.651 153.097C246.343 154.073 245.367 155.615 244.442 156.539C242.85 158.081 242.387 158.235 237.353 158.8C234.373 159.108 230.109 159.262 227.848 159.108C225.588 158.954 222.813 158.44 221.683 157.927C219.936 157.207 218.755 157.156 213.72 157.516C210.483 157.772 204.37 157.978 200.106 157.978C193.581 157.978 191.834 157.824 188.803 156.848C186.8 156.231 184.077 154.947 182.638 153.971C181.251 153.046 179.556 151.453 178.888 150.477C178.066 149.296 177.758 148.165 177.86 146.932C177.963 145.853 178.323 145.083 178.785 144.98C179.196 144.877 180.378 145.391 181.354 146.008C182.844 147.035 183.203 147.6 183.409 149.501C183.614 151.402 183.871 151.813 184.693 151.813C185.464 151.813 185.772 151.402 185.875 150.374C185.926 149.604 185.772 148.576 185.515 148.063C185.156 147.497 185.207 146.316 185.618 144.672C185.978 143.285 186.594 141.949 187.005 141.641C187.416 141.384 188.341 141.281 189.06 141.435C189.779 141.589 191.475 142.72 192.81 143.953C194.865 145.751 195.379 146.008 195.739 145.391C195.996 144.98 196.355 143.336 196.509 141.795C196.715 140.254 197.28 137.788 197.845 136.4C198.359 134.962 199.386 133.215 200.157 132.393C200.928 131.623 201.904 131.006 202.366 131.006ZM123.197 140.767C124.122 140.767 125.15 141.332 126.177 142.411C127.05 143.336 128.232 144.929 128.797 145.905C129.414 146.984 129.979 149.141 130.184 151.145C130.338 153.097 130.955 155.666 131.52 156.95C132.085 158.235 132.907 159.416 133.37 159.622C133.883 159.879 134.346 159.725 134.654 159.262C134.911 158.851 134.962 157.67 134.757 156.694C134.603 155.717 133.935 153.406 133.267 151.556C132.137 148.422 132.137 148.165 132.959 147.292C133.626 146.624 134.243 146.47 135.373 146.727C136.195 146.881 137.48 147.343 138.199 147.703C138.918 148.063 140.254 149.141 141.23 150.066C142.155 151.042 143.439 152.738 144.004 153.868C144.569 154.998 145.237 156.437 145.443 157.053C145.854 158.132 145.7 158.286 143.234 159.005C141.744 159.468 139.74 160.29 138.867 160.804C137.839 161.42 137.171 162.242 137.171 162.859C137.171 163.424 137.634 164.092 138.199 164.4C138.764 164.708 140.768 164.965 142.617 165.016C145.7 165.17 146.111 165.068 146.984 163.886C147.549 163.167 148.011 161.831 147.96 159.262L151.71 159.365C155.101 159.519 155.409 159.622 155.564 160.649C155.615 161.42 154.947 162.653 153.611 164.143C151.813 166.147 151.556 166.712 151.71 168.664C151.813 170.462 152.019 170.822 152.995 170.924C153.817 171.027 154.382 170.616 155.101 169.383C155.666 168.51 156.386 166.712 156.797 165.479C157.156 164.246 157.927 162.91 158.492 162.499C159.057 162.139 161.112 161.317 163.116 160.701C166.044 159.827 167.688 159.673 171.849 159.827C175.908 160.033 177.552 160.341 179.813 161.369C181.354 162.088 183.768 163.681 185.104 164.914C186.44 166.198 187.57 167.328 187.57 167.482C187.519 167.636 186.491 167.945 185.207 168.253C183.203 168.715 182.741 168.613 181.97 167.842C181.508 167.328 179.607 166.147 177.758 165.273C175.292 164.092 173.699 163.681 171.593 163.681C169.435 163.629 168.202 163.989 166.352 165.068C164.606 166.044 163.424 167.225 162.345 169.126C161.523 170.616 160.701 172.774 160.547 173.904C160.341 175.343 160.496 176.319 161.009 177.089C161.472 177.757 162.756 178.733 163.886 179.299C165.017 179.864 167.637 180.583 169.692 180.891C171.952 181.251 175.394 181.354 178.528 181.097C181.354 180.891 184.95 180.377 186.491 179.864C188.649 179.196 189.574 178.579 190.498 177.244C191.115 176.267 191.629 174.726 191.629 173.904C191.629 173.082 191.423 171.592 190.601 169.024H197.28L195.893 171.695C194.814 173.699 194.403 175.291 194.3 178.014C194.146 180.377 194.352 182.33 194.865 183.665C195.328 184.796 196.355 186.337 197.229 187.108C198.308 188.084 199.386 188.546 200.568 188.546C201.75 188.546 202.674 188.135 203.651 187.108C204.524 186.234 205.14 184.898 205.295 183.409C205.5 182.124 205.5 180.018 205.295 178.631C205.14 177.295 204.575 175.24 204.01 174.007C203.496 172.825 202.418 171.079 201.596 170.154C200.106 168.51 200.106 168.458 201.133 167.739C201.698 167.328 202.983 166.609 203.959 166.147C204.935 165.684 207.35 164.965 209.353 164.554C211.46 164.092 214.131 163.886 215.775 164.092C217.316 164.246 219.782 164.759 221.169 165.273C222.762 165.787 224.612 167.02 226.05 168.458C227.848 170.257 228.619 171.541 229.287 173.904C229.749 175.6 230.263 178.836 230.674 185.207L228.927 179.812C227.951 176.833 226.667 173.904 226.101 173.236C225.485 172.62 224.714 172.106 224.406 172.106C224.046 172.106 223.327 172.363 222.813 172.723C222.351 173.082 221.375 174.675 219.525 179.042L218.96 176.473C218.601 175.034 217.881 173.134 217.316 172.209C216.751 171.335 215.878 170.565 215.415 170.565C214.902 170.565 213.977 170.924 213.36 171.335C212.693 171.746 211.922 172.979 211.562 174.007C211.254 175.086 210.997 177.141 210.946 178.631C210.894 180.891 210.74 181.354 209.867 181.456C209.302 181.559 208.788 182.073 208.685 182.638C208.583 183.306 209.148 184.282 210.329 185.309C211.357 186.234 213.771 187.827 215.775 188.803C217.779 189.779 220.81 190.961 222.608 191.423C224.355 191.885 226.872 192.194 228.208 192.091C230.109 191.937 230.982 191.526 232.472 190.087C233.602 189.008 235.4 186.131 236.993 182.895C238.431 179.915 239.613 177.449 239.613 177.398C239.664 177.295 240.641 177.655 241.822 178.168C243.877 178.99 244.031 179.144 244.031 181.097C244.031 182.227 244.442 183.974 245.007 184.95C245.521 185.926 246.857 187.262 247.936 187.878C249.015 188.546 250.659 189.06 251.481 189.06C252.303 189.06 254.101 188.546 255.437 187.93C257.286 187.005 257.8 186.902 257.594 187.519C257.44 187.93 256.824 190.087 255.077 196.252H253.022C251.429 196.252 250.659 195.944 249.58 194.865C248.861 194.043 247.268 193.118 246.138 192.759C244.956 192.451 243.415 192.296 242.644 192.451C241.822 192.656 240.384 193.375 239.408 194.146C238.431 194.865 237.096 196.047 236.479 196.766C235.811 197.485 234.064 200.208 232.626 202.777C231.136 205.397 229.749 207.349 229.595 207.144C229.389 206.938 228.156 204.626 226.769 202.006C225.382 199.335 223.43 196.252 220.656 193.016L217.059 193.375C215.056 193.581 211.408 194.095 208.839 194.557C205.397 195.173 203.907 195.687 203.085 196.612C202.418 197.28 201.647 198.77 201.339 199.951C201.03 201.184 200.619 203.548 200.106 208.274L197.537 208.942C196.15 209.302 194.609 209.61 194.198 209.61C193.581 209.61 193.427 208.788 193.427 205.089C193.427 201.184 193.273 200.311 192.091 198.307C191.372 197.023 189.831 195.173 188.649 194.197C187.519 193.221 184.693 191.269 182.33 189.882C179.967 188.443 176.679 186.799 175.086 186.131C173.442 185.464 170.565 184.693 168.664 184.436C166.198 184.025 164.143 184.025 161.729 184.436C159.776 184.693 157.362 185.412 156.334 185.926C155.255 186.491 153.509 187.827 152.481 188.906C151.454 189.985 149.964 192.245 149.193 193.94C148.422 195.636 147.498 198.153 147.087 199.592C146.727 200.979 146.419 203.085 146.419 206.27L142.155 205.603C139.74 205.192 136.503 204.215 134.603 203.342C132.393 202.263 130.133 200.619 127.924 198.359C126.074 196.509 124.276 194.197 123.917 193.273C123.557 192.399 123.454 191.68 123.711 191.731C123.917 191.834 126.639 192.913 129.722 194.146C132.856 195.328 136.401 196.458 137.685 196.612C138.969 196.766 140.87 196.766 141.949 196.561C143.234 196.355 144.518 195.584 146.059 194.043C147.241 192.862 148.988 190.293 149.964 188.289C151.402 185.207 151.608 184.282 151.402 181.867C151.197 179.299 150.94 178.836 148.885 176.987C147.652 175.856 145.7 174.521 144.621 173.956C143.49 173.442 140.973 172.671 138.969 172.26C136.247 171.695 134.808 171.695 132.959 172.106C131.571 172.363 129.876 172.928 129.105 173.339C128.283 173.75 127.05 174.726 126.28 175.548C125.509 176.319 124.328 178.117 123.66 179.555C122.94 180.943 122.17 183.049 122.016 184.179C121.81 185.309 121.451 186.594 121.245 187.005C120.937 187.621 120.68 187.519 120.012 186.491C119.55 185.772 119.036 184.282 118.882 183.152C118.676 181.97 118.83 180.223 119.19 179.042C119.55 177.911 120.629 175.754 121.553 174.264C122.529 172.825 123.249 171.335 123.197 170.976C123.095 170.668 121.913 170.308 120.474 170.257C119.087 170.154 116.93 169.743 115.748 169.28C114.515 168.869 113.076 167.893 112.511 167.071C111.895 166.301 111.432 165.222 111.484 164.657C111.484 164.092 111.843 163.115 112.254 162.448C112.665 161.831 114.001 160.598 115.234 159.776C116.416 158.903 117.546 158.235 117.803 158.235C118.008 158.235 118.522 159.057 118.933 160.033C119.498 161.42 120.012 161.831 120.988 161.831C121.759 161.831 122.581 161.369 123.043 160.649C123.454 160.033 123.814 158.749 123.814 157.824C123.814 156.539 123.506 156.077 122.529 155.666C121.81 155.358 120.885 155.306 120.423 155.563C119.652 155.872 119.55 155.358 119.755 150.272C119.961 146.264 120.269 144.055 120.937 142.668C121.656 141.178 122.17 140.767 123.197 140.767ZM215.981 147.6C216.032 147.703 215.929 148.371 215.724 149.039C215.518 149.707 214.799 151.042 214.028 151.967C213.309 152.84 212.487 153.611 212.179 153.611C211.871 153.611 211.871 153.2 212.23 152.481C212.59 151.813 213.566 150.426 214.388 149.347C215.261 148.268 215.981 147.497 215.981 147.6ZM269.462 157.053C270.335 157.207 271.466 157.567 271.979 157.927C272.801 158.389 272.904 158.851 272.647 161.06C272.442 162.602 271.311 165.736 269.77 168.767C268.383 171.592 265.712 175.805 263.862 178.168C262.013 180.48 259.136 183.357 257.543 184.59C255.231 186.286 254.101 186.799 252.046 186.953C249.631 187.159 249.272 187.056 247.782 185.566C246.857 184.642 246.086 183.46 246.086 182.895C246.086 182.33 246.086 181.508 246.086 181.097C246.086 180.686 246.086 180.172 246.086 179.966C246.086 179.71 247.422 179.71 249.066 179.915C250.659 180.121 252.919 180.172 254.049 180.018C255.18 179.864 257.029 179.247 258.108 178.631C259.238 178.014 260.882 176.576 261.756 175.445C262.629 174.315 263.811 172.106 264.427 170.565C265.044 169.024 265.814 166.301 266.225 164.605C266.79 161.831 266.79 161.317 266.123 160.598C265.712 160.136 264.735 159.725 263.965 159.776C263.143 159.776 261.293 160.393 259.855 161.112C258.365 161.882 255.848 163.321 254.306 164.4C252.765 165.427 250.607 167.328 249.477 168.561C248.398 169.794 246.857 172.26 246.035 174.058C245.213 175.805 244.442 177.244 244.288 177.244C244.134 177.244 243.209 176.884 242.233 176.473C241.257 176.062 240.435 175.6 240.435 175.445C240.435 175.291 241 174.058 241.719 172.62C242.439 171.233 243.877 169.126 244.956 167.945C245.984 166.763 248.501 164.811 250.453 163.578C252.457 162.345 255.796 160.598 257.903 159.725C260.009 158.851 263.143 157.824 264.838 157.413C266.534 157.053 268.64 156.899 269.462 157.053ZM145.032 160.341C145.648 160.29 145.905 160.701 145.905 161.831C145.905 163.372 145.854 163.372 143.234 163.372C141.744 163.372 140.151 163.167 139.74 162.859C139.124 162.499 139.278 162.293 140.511 161.831C141.333 161.574 142.514 161.112 143.079 160.855C143.645 160.547 144.518 160.341 145.032 160.341ZM264.016 161.471C264.427 161.574 264.684 162.191 264.633 162.859C264.633 163.578 264.016 165.992 263.297 168.253C262.526 170.77 261.345 173.134 260.317 174.418C259.341 175.548 257.748 176.884 256.721 177.398C255.454 177.98 253.673 178.254 251.378 178.22C249.426 178.22 247.525 178.066 247.062 177.86C246.292 177.552 246.343 177.141 247.679 174.418C248.501 172.723 250.042 170.462 251.07 169.332C252.149 168.253 254.512 166.352 256.361 165.17C258.211 163.937 260.523 162.602 261.499 162.139C262.475 161.728 263.605 161.42 264.016 161.471ZM171.593 165.427C173.082 165.427 175.035 165.941 177.141 166.969C178.888 167.842 180.429 168.715 180.583 169.024C180.737 169.332 180.224 169.794 179.453 170.154C178.631 170.513 177.398 171.181 176.627 171.695C175.805 172.209 175.189 173.082 175.189 173.647C175.189 174.264 175.651 174.778 176.37 174.983C176.987 175.137 178.477 175.137 179.71 174.983C180.891 174.829 182.33 174.212 182.895 173.647C183.46 173.082 183.923 172.157 183.923 171.592C183.923 171.027 184.077 170.462 184.334 170.359C184.539 170.205 185.669 170 186.902 169.846C189.06 169.537 189.06 169.537 189.574 171.49C189.831 172.517 189.933 173.956 189.779 174.675C189.677 175.394 189.06 176.422 188.495 176.987C187.878 177.552 185.978 178.322 184.231 178.631C182.535 178.99 178.58 179.299 175.446 179.299C172.004 179.299 168.664 178.99 166.969 178.528C165.428 178.117 163.732 177.346 163.167 176.833C162.448 176.165 162.294 175.497 162.499 173.647C162.705 172.312 163.373 170.462 164.246 169.28C165.068 168.15 166.506 166.814 167.483 166.352C168.459 165.838 170.308 165.427 171.593 165.427ZM200.003 170.873C200.517 171.438 201.441 172.774 202.007 173.904C202.572 175.034 203.24 177.141 203.445 178.528C203.702 179.966 203.651 182.124 203.445 183.409C203.188 184.693 202.572 186.029 202.058 186.388C201.544 186.748 200.825 187.005 200.517 187.005C200.157 187.005 199.078 186.234 198.102 185.361C196.766 184.076 196.304 183.049 195.996 181.097C195.739 179.555 195.842 177.5 196.201 175.959C196.509 174.572 197.28 172.62 197.897 171.644C198.975 170 199.027 169.948 200.003 170.873ZM135.373 173.647C136.812 173.647 139.483 174.11 141.435 174.675C144.107 175.445 145.443 176.267 147.446 178.168C149.553 180.172 150.015 180.891 150.015 182.381C150.015 183.357 149.347 185.566 148.577 187.262C147.755 188.957 146.419 191.115 145.597 192.091C144.775 193.067 143.336 194.146 142.463 194.557C141.538 194.917 140.202 195.225 139.483 195.225C138.764 195.225 136.401 194.608 134.243 193.889C132.034 193.17 128.643 191.834 123.146 189.317L123.403 186.491C123.557 184.95 124.122 182.638 124.687 181.354C125.252 180.069 126.383 178.271 127.205 177.295C128.027 176.319 129.619 175.086 130.749 174.623C131.88 174.11 133.986 173.647 135.373 173.647ZM162.551 195.071C162.859 195.276 163.475 195.893 163.886 196.458C164.297 197.074 165.633 199.181 166.866 201.236C168.202 203.599 169.383 204.986 169.949 204.986C170.462 205.037 171.13 204.37 171.541 203.342C171.952 202.417 172.723 200.671 173.339 199.438C173.956 198.256 174.572 197.28 174.829 197.28C175.035 197.28 175.189 198.256 175.189 199.489C175.189 200.671 174.829 202.726 174.418 204.113C173.75 206.27 173.75 206.579 174.418 207.195C175.086 207.709 175.805 207.401 178.785 205.397C180.789 204.01 182.741 202.931 183.152 202.931C183.614 202.931 184.231 203.907 184.693 205.397C185.156 206.733 185.361 208.223 185.207 208.736C185.053 209.25 184.231 209.713 183.049 209.918C181.97 210.124 178.323 210.124 174.932 209.969C170.103 209.713 168.664 209.507 168.407 208.891C168.15 208.428 166.661 207.195 165.068 206.065C163.424 204.986 161.523 203.445 160.804 202.726C159.674 201.493 159.571 201.082 159.93 198.924C160.136 197.588 160.701 196.098 161.112 195.636C161.574 195.122 162.191 194.865 162.551 195.071ZM247.268 197.845C249.426 197.794 249.683 197.896 249.939 199.078C250.094 199.797 250.042 200.979 249.888 201.801C249.683 202.571 249.22 203.907 248.758 204.729C248.347 205.551 247.576 206.681 247.062 207.195C246.497 207.658 245.316 208.223 244.442 208.377C243.055 208.685 242.593 208.531 241.822 207.503C241.308 206.784 240.949 205.346 240.949 204.113C240.949 202.88 241.36 201.184 241.822 200.311C242.285 199.489 243.158 198.564 243.774 198.307C244.34 198.05 245.881 197.845 247.268 197.845ZM259.29 198.924C260.625 199.129 263.091 199.746 264.787 200.26C266.431 200.722 267.972 201.441 268.229 201.801C268.537 202.212 268.023 202.88 266.534 203.959C265.301 204.832 263.708 205.603 262.937 205.757C262.115 205.911 260.831 206.116 259.958 206.27C258.776 206.476 258.262 206.27 257.697 205.397C257.286 204.729 256.772 203.393 256.618 202.417C256.413 201.441 256.361 200.105 256.515 199.54C256.772 198.513 256.978 198.461 259.29 198.924ZM217.573 272.339C228.054 272.287 238.123 272.493 241.719 272.852C245.11 273.161 248.45 273.623 249.169 273.88C250.402 274.342 250.453 274.394 249.426 275.062C248.861 275.421 247.268 276.089 245.829 276.551C244.442 277.014 241.206 277.733 238.637 278.144C236.12 278.606 230.417 279.223 226.05 279.531C221.221 279.891 213.36 279.994 206.014 279.839C198.513 279.634 190.858 279.12 185.721 278.504C181.2 277.887 174.521 276.654 170.822 275.781C167.174 274.856 164.503 274.034 164.914 273.931C165.325 273.88 173.339 273.469 182.638 273.109C191.988 272.75 207.709 272.441 217.573 272.339Z" fill="#2B0D0D"/>
</svg>
