<svg width="584" height="30" viewBox="0 0 584 30" fill="none" xmlns="http://www.w3.org/2000/svg">
<path d="M240.205 7.405C240.205 6.40167 240.578 5.60833 241.325 5.025C242.095 4.44167 243.122 4.15 244.405 4.15L252.14 23.26L251.37 25.255L251.685 25.395L259.945 4.185C261.252 4.185 262.278 4.47667 263.025 5.06C263.795 5.64333 264.18 6.43667 264.18 7.44V29.315C261.427 29.315 260.05 28.2533 260.05 26.13V13.74L261.135 10.8L260.785 10.695L253.89 28.16C253.75 28.4867 253.528 28.7667 253.225 29C252.922 29.21 252.583 29.315 252.21 29.315C251.813 29.315 251.452 29.21 251.125 29C250.822 28.79 250.6 28.4983 250.46 28.125L243.6 10.625L243.25 10.765L244.335 13.705V26.13C244.335 28.2533 242.958 29.315 240.205 29.315V7.405ZM282.96 29.315C281.537 29.315 280.23 29.035 279.04 28.475C277.873 27.915 276.952 27.145 276.275 26.165C275.598 25.1617 275.26 24.0417 275.26 22.805V17.975C275.26 16.6917 275.61 15.5367 276.31 14.51C277.01 13.4833 277.955 12.6783 279.145 12.095C280.335 11.4883 281.618 11.185 282.995 11.185C284.372 11.185 285.62 11.465 286.74 12.025C287.883 12.585 288.782 13.3783 289.435 14.405C290.112 15.4083 290.45 16.54 290.45 17.8V19.865C290.45 20.3317 290.275 20.7283 289.925 21.055C289.575 21.3817 289.132 21.545 288.595 21.545H279.075V22.56C279.075 23.6333 279.402 24.4967 280.055 25.15C280.732 25.8033 281.712 26.13 282.995 26.13C284.255 26.13 285.2 25.8617 285.83 25.325C286.46 24.765 286.775 24.03 286.775 23.12C286.915 23.0967 287.125 23.085 287.405 23.085C288.198 23.085 288.828 23.2717 289.295 23.645C289.785 23.995 290.03 24.4967 290.03 25.15C290.03 25.85 289.715 26.5267 289.085 27.18C288.455 27.81 287.592 28.3233 286.495 28.72C285.422 29.1167 284.243 29.315 282.96 29.315ZM286.845 18.64V17.8C286.845 16.75 286.483 15.91 285.76 15.28C285.06 14.6267 284.127 14.3 282.96 14.3C281.793 14.3 280.848 14.6267 280.125 15.28C279.425 15.91 279.075 16.75 279.075 17.8V18.64H286.845ZM301.065 14.3C301.065 12.2233 302.314 11.185 304.81 11.185V13.32C304.53 13.6233 304.262 13.985 304.005 14.405L304.215 14.545C304.892 13.5183 305.779 12.7017 306.875 12.095C307.995 11.4883 309.22 11.185 310.55 11.185C311.764 11.185 312.825 11.4533 313.735 11.99C314.645 12.5033 315.345 13.2267 315.835 14.16C316.349 15.0933 316.605 16.1317 316.605 17.275V26.795C316.605 27.6817 316.279 28.3233 315.625 28.72C314.972 29.1167 313.992 29.315 312.685 29.315V17.8C312.685 16.8433 312.394 16.0733 311.81 15.49C311.25 14.8833 310.422 14.58 309.325 14.58C308.112 14.58 307.085 14.965 306.245 15.735C305.405 16.4817 304.985 17.4033 304.985 18.5V26.795C304.985 27.6817 304.659 28.3233 304.005 28.72C303.375 29.1167 302.395 29.315 301.065 29.315V14.3ZM342.874 26.2C342.874 27.2033 342.559 27.9733 341.929 28.51C341.322 29.0467 340.389 29.315 339.129 29.315V27.145C339.339 26.8883 339.607 26.5383 339.934 26.095L339.724 25.955C339.024 27.005 338.16 27.8333 337.134 28.44C336.13 29.0233 334.987 29.315 333.704 29.315C332.49 29.315 331.394 29.0467 330.414 28.51C329.457 27.95 328.71 27.1917 328.174 26.235C327.637 25.255 327.369 24.1467 327.369 22.91V13.705C327.369 12.8183 327.684 12.1767 328.314 11.78C328.967 11.3833 329.97 11.185 331.324 11.185V22.665C331.324 23.6683 331.615 24.4617 332.199 25.045C332.782 25.605 333.645 25.885 334.789 25.885C336.025 25.885 337.029 25.5117 337.799 24.765C338.569 24.0183 338.954 23.085 338.954 21.965V13.705C338.954 12.8183 339.269 12.1767 339.899 11.78C340.552 11.3833 341.544 11.185 342.874 11.185V26.2Z" fill="white"/>
<path d="M583.91 16.5L575.25 7.83975L566.59 16.5L575.25 25.1603L583.91 16.5ZM0.339746 16.5L9 25.1603L17.6603 16.5L9 7.83975L0.339746 16.5ZM380.25 18H575.25V15H380.25V18ZM204 15H9V18H204V15Z" fill="white"/>
</svg>
