<svg width="302" height="236" viewBox="0 0 302 236" fill="none" xmlns="http://www.w3.org/2000/svg">
<path d="M235.441 53.1633C235.811 53.1569 236.375 53.2211 236.702 53.3042C237.029 53.3873 237.538 53.704 237.839 53.9948C238.14 54.2856 238.475 54.783 238.569 55.107C238.663 55.431 238.749 56.0661 238.756 56.51C238.765 57.0131 238.656 57.5479 238.485 57.9209C238.328 58.2493 238.053 58.6094 237.877 58.7309C237.687 58.8526 234.876 60.6187 231.611 62.6592C228.345 64.6997 225.606 66.361 225.532 66.3771C225.458 66.3784 224.98 66.0907 224.485 65.7441C223.991 65.4122 223.405 64.8896 223.178 64.6271C222.951 64.3498 222.755 64.1608 222.757 64.2348C222.758 64.294 222.959 64.779 223.19 65.3374C223.437 65.8808 223.684 66.4834 223.732 66.6898C223.795 66.9107 223.77 67.1628 223.654 67.298C223.567 67.4327 222.455 68.1775 221.211 68.9541C219.966 69.7307 217.331 71.405 215.354 72.6533C213.378 73.9016 210.524 75.7425 208.986 76.7166C207.449 77.6908 203.76 80.0643 200.789 81.9665C197.817 83.8834 194.67 85.9071 193.792 86.4849C192.929 87.0477 192.196 87.4749 192.151 87.4165C192.105 87.3433 191.856 87.5252 191.595 87.811C191.348 88.0818 191.055 88.2793 190.981 88.2362C190.906 88.1931 190.657 88.3455 190.425 88.6012C190.207 88.8418 189.885 89.0843 189.694 89.132C189.517 89.1943 189.239 89.3472 189.078 89.4832C188.918 89.634 187.279 90.7284 185.42 91.9302C183.561 93.1321 179.713 95.6712 176.859 97.5713C174.006 99.4566 170.012 102.132 168.008 103.499C165.989 104.866 162.801 107.083 160.914 108.404C159.028 109.724 157.127 111.075 155.944 111.984L156.232 112.393C156.399 112.612 156.6 113.082 156.71 113.451C156.867 113.996 156.857 114.277 156.664 115.08C156.54 115.615 156.243 116.419 155.999 116.867C155.756 117.316 155.425 117.854 155.28 118.064C155.136 118.274 155.006 118.483 155.022 118.557C155.023 118.616 155.729 118.338 156.596 117.952C157.477 117.567 160.694 116.164 163.765 114.852C166.836 113.54 173.948 110.53 179.561 108.167C185.174 105.819 191.655 103.101 193.962 102.143C196.269 101.185 201.883 98.8516 206.453 96.9659C211.024 95.0655 217.005 92.6075 219.754 91.479C222.502 90.3504 228.542 87.8618 233.172 85.9603C237.787 84.0739 241.697 82.5106 241.845 82.5081C241.978 82.4909 242.367 82.7654 242.699 83.1148C243.031 83.4643 243.53 84.0921 243.804 84.5166C244.063 84.9265 244.336 85.277 244.395 85.276C244.469 85.2747 244.355 84.6846 244.165 83.9774C243.975 83.2702 243.813 82.4589 243.793 82.178C243.788 81.8968 243.857 81.5848 243.959 81.4942C244.061 81.4036 244.942 81.033 245.913 80.6608C246.883 80.2886 248.105 79.8676 248.635 79.7103C249.165 79.5383 250.021 79.4049 250.553 79.3956C251.086 79.3863 251.753 79.4339 252.036 79.5177C252.318 79.5868 252.87 79.8436 253.26 80.0885C253.783 80.405 254.07 80.7108 254.301 81.2249C254.547 81.7387 254.612 82.078 254.546 82.5528C254.508 82.8939 254.354 83.4295 254.197 83.7431C254.054 84.0416 253.649 84.5964 253.3 84.9577C252.951 85.319 252.264 85.8195 251.78 86.05C251.296 86.2953 248.797 87.2863 246.223 88.2785C243.591 89.2866 241.429 90.0349 241.265 89.9933C241.101 89.9518 240.485 89.3852 239.881 88.7297C239.292 88.059 238.75 87.506 238.675 87.4925C238.616 87.464 238.741 87.8614 238.957 88.3757C239.173 88.8752 239.394 89.6263 239.547 90.7634L238.68 91.1338C238.21 91.3344 235.592 92.3275 232.886 93.3517C230.181 94.3758 227.063 95.5552 225.975 95.9591C224.887 96.3629 220.651 97.9615 216.563 99.4983C212.475 101.035 205.563 103.628 201.196 105.273C196.828 106.903 189.21 109.76 184.283 111.593C179.357 113.425 173.694 115.522 171.709 116.253C169.723 116.983 165.296 118.585 161.853 119.815C158.411 121.029 155.602 122.1 155.603 122.159C155.604 122.218 155.779 122.866 155.984 123.603C156.362 124.914 156.377 124.943 158.19 127.028C159.202 128.165 160.561 129.74 161.211 130.528C161.876 131.301 162.77 132.455 163.195 133.098C163.621 133.742 164.094 134.548 164.233 134.886C164.387 135.239 164.499 135.696 164.503 135.918C164.507 136.154 164.395 136.497 164.265 136.691C164.12 136.901 163.784 137.159 163.52 137.267C163.27 137.375 162.857 137.471 162.606 137.475C162.354 137.48 161.923 137.384 161.64 137.27C161.357 137.157 160.862 136.81 160.546 136.505C160.23 136.214 159.7 135.513 159.349 134.942C158.999 134.371 158.386 133.153 157.999 132.227C157.613 131.301 156.913 129.374 156.46 127.961C155.66 125.429 155.63 125.356 154.601 124.071C154.025 123.341 153.556 122.742 153.556 122.727C153.541 122.713 153.113 122.824 152.583 122.952C152.052 123.094 151.506 123.163 151.357 123.121C151.163 123.05 151.116 122.903 151.169 122.532C151.209 122.28 151.409 121.832 151.596 121.563C151.799 121.307 151.913 121.054 151.839 121.026C151.779 120.997 151.132 121.26 150.413 121.613C149.253 122.166 149.063 122.303 148.996 122.689C148.941 122.926 148.996 123.562 149.109 124.093C149.237 124.624 149.519 125.507 149.751 126.08C149.998 126.653 150.458 127.607 150.795 128.208C151.131 128.809 151.8 129.863 152.271 130.551C152.742 131.238 153.65 132.377 154.27 133.106C154.904 133.835 156.11 135.072 156.968 135.886C157.826 136.685 159.013 137.701 159.583 138.15C160.153 138.584 161.607 139.624 162.805 140.432C164.004 141.255 165.548 142.353 166.252 142.859C166.957 143.38 168.173 144.335 168.954 144.988C169.735 145.64 170.953 146.729 171.66 147.398C172.368 148.081 173.423 149.188 174.012 149.858C174.602 150.544 175.465 151.653 175.936 152.341C176.392 153.029 176.986 153.995 177.246 154.494C177.507 155.008 177.924 155.992 178.639 157.993L182.182 159.115C184.132 159.732 186.247 160.48 186.889 160.78C187.515 161.065 188.084 161.425 188.131 161.557C188.192 161.704 188.167 161.956 188.096 162.12C188.01 162.285 186.662 163.936 185.096 165.799C183.53 167.662 181.95 169.569 181.588 170.035C181.241 170.514 181.026 170.903 181.1 170.902C181.174 170.9 181.247 170.825 181.245 170.751C181.244 170.677 181.331 170.587 181.449 170.555C181.567 170.538 183.025 169.24 184.685 167.657C186.344 166.073 188.5 164.052 189.461 163.147C190.437 162.242 192.098 160.748 193.163 159.826C194.227 158.905 195.702 157.724 196.447 157.193C197.193 156.677 198.102 156.143 198.499 156.018C198.985 155.846 199.28 155.826 199.489 155.926C199.653 155.998 199.955 156.288 200.151 156.537C200.363 156.799 200.746 157.518 201.008 158.12C201.27 158.723 201.799 160.208 202.176 161.43C202.552 162.638 203.123 164.789 203.473 166.189C203.968 168.297 204.124 168.709 204.3 168.617C204.417 168.556 204.86 168.489 205.274 168.481C205.896 168.471 206.208 168.584 207.285 169.172C207.972 169.559 209.035 170.222 209.634 170.655C210.219 171.074 211.195 171.857 211.781 172.394C212.368 172.946 213.183 173.805 213.592 174.331C214 174.857 214.518 175.677 214.778 176.161C215.023 176.645 215.304 177.439 215.416 177.926C215.544 178.471 215.587 179.24 215.539 179.922C215.506 180.529 215.373 181.405 215.247 181.851C215.122 182.298 214.825 183.073 214.596 183.565C214.353 184.058 213.879 184.865 213.547 185.36C213.201 185.854 212.388 186.816 211.719 187.479C211.05 188.156 210.264 188.91 209.987 189.167C209.71 189.423 208.629 190.212 207.576 190.941C206.479 191.7 204.427 192.89 202.74 193.763C201.126 194.591 198.851 195.667 197.675 196.146C196.499 196.64 194.294 197.478 192.749 198.023C191.204 198.554 188.628 199.383 187.008 199.855C185.388 200.328 182.707 201.041 181.041 201.44C179.375 201.839 176.928 202.385 175.585 202.66C174.243 202.935 172.296 203.295 171.233 203.476C170.17 203.657 168.251 203.957 166.952 204.143C165.653 204.328 163.496 204.603 162.152 204.76C160.807 204.901 158.147 205.111 156.239 205.233C153.888 205.377 151.565 205.418 149.062 205.358C147.034 205.305 144.456 205.216 143.36 205.162C142.264 205.092 140.055 204.923 138.469 204.788C136.883 204.653 134.243 204.373 132.611 204.165C130.979 203.957 128.516 203.6 127.12 203.373C125.725 203.145 123.23 202.671 121.551 202.33C119.873 201.989 117.198 201.385 115.607 200.983C114.016 200.567 111.532 199.885 110.104 199.466C108.675 199.047 106.323 198.288 104.894 197.795C103.464 197.302 101.304 196.496 100.096 196.014C98.8743 195.547 96.8611 194.694 95.6228 194.138C94.3697 193.583 92.8324 192.855 92.2192 192.495C91.6063 192.151 91.0241 191.865 90.9501 191.866C90.8761 191.867 90.2629 191.508 89.6043 191.09C88.9455 190.658 87.864 189.759 87.201 189.09C86.5235 188.435 85.7993 187.649 85.1638 186.86L85.1721 187.334C85.1767 187.6 85.3321 188.871 85.5171 190.14C85.7024 191.425 86.0153 193.24 86.1943 194.17C86.3882 195.099 86.6768 196.367 86.8501 196.971C87.0235 197.574 87.1683 198.238 87.1719 198.445C87.1755 198.652 87.27 198.976 87.392 199.181C87.514 199.387 87.9313 200.401 88.3199 201.46C88.7232 202.518 89.3571 204.061 89.7272 204.914C90.0973 205.766 90.9567 207.512 91.6158 208.803C92.2896 210.094 93.4514 212.205 94.214 213.495C94.9914 214.784 96.5131 217.155 97.6217 218.764C98.7304 220.373 100.353 222.609 101.217 223.734C102.095 224.858 103.486 226.566 104.302 227.529C105.119 228.491 106.372 229.905 107.081 230.663C107.79 231.42 109.191 232.817 110.184 233.776C111.178 234.721 112.666 236.042 113.492 236.708C114.318 237.375 115.533 238.286 116.192 238.719C116.851 239.166 117.957 239.798 118.659 240.141C119.36 240.484 120.629 241.054 121.493 241.409C122.358 241.749 124.026 242.342 125.217 242.706C126.407 243.07 128.578 243.639 130.049 243.969C131.521 244.298 133.897 244.745 135.321 244.957C136.746 245.169 139.09 245.469 140.514 245.607C141.937 245.745 144.471 245.937 146.146 246.026C147.82 246.116 150.249 246.221 153.922 246.32L154.119 245.739C154.232 245.412 154.68 244.782 155.13 244.315C155.727 243.698 156.326 243.273 157.338 242.752C158.101 242.369 159.292 241.889 159.984 241.67C160.676 241.465 162.49 241.064 164.039 240.77C165.588 240.491 167.873 239.978 169.126 239.63C170.378 239.283 172.041 238.751 172.806 238.456C173.57 238.147 174.965 237.53 175.89 237.055C176.814 236.595 178.134 235.861 178.822 235.435C179.51 235.008 180.724 234.143 181.527 233.523C182.33 232.902 183.671 231.709 184.5 230.88C185.329 230.037 186.404 228.849 186.911 228.233C187.404 227.617 188.228 226.508 188.748 225.759C189.253 225.01 190.046 223.782 190.491 223.019C190.937 222.271 191.726 220.822 192.241 219.821C192.742 218.806 193.541 217.119 193.996 216.045C194.466 214.972 195.459 212.527 196.225 210.604C196.976 208.681 197.898 206.4 198.239 205.536C198.594 204.671 199.349 203 199.935 201.806C200.506 200.612 201.381 198.998 201.885 198.219C202.375 197.441 203.272 196.271 203.883 195.609C204.624 194.811 205.645 193.964 207.093 192.962C208.263 192.142 209.902 191.048 210.751 190.515C211.6 189.982 212.758 189.326 213.315 189.035C213.873 188.758 214.52 188.525 214.757 188.521C215.023 188.516 215.217 188.617 215.325 188.837C215.463 189.101 215.441 189.53 215.268 190.658C215.149 191.475 214.709 193.392 214.292 194.938C213.874 196.47 213.09 199.045 212.541 200.653C211.992 202.276 211.131 204.645 210.649 205.911C210.168 207.178 209.402 209.086 208.947 210.16C208.507 211.233 207.351 213.71 206.394 215.666C205.451 217.637 204.52 219.385 204.345 219.551C204.156 219.732 204.012 219.986 204.015 220.134C204.017 220.267 203.946 220.416 203.872 220.462C203.799 220.507 203.495 220.912 203.222 221.361C202.949 221.81 202.72 222.273 202.722 222.377C202.708 222.466 202.277 223.184 201.742 223.948C201.208 224.712 200.745 225.327 200.701 225.328C200.656 225.329 200.178 225.914 199.628 226.634C199.063 227.355 198.543 228.089 198.473 228.268C198.387 228.447 197.633 229.378 196.792 230.355C195.95 231.332 194.614 232.776 193.813 233.56C193.013 234.343 191.542 235.701 190.535 236.563C189.529 237.439 187.981 238.65 187.104 239.257C186.227 239.88 184.908 240.687 184.175 241.07C183.442 241.453 182.06 242.039 181.089 242.382C180.118 242.725 178.396 243.243 177.261 243.559C176.127 243.86 174.211 244.337 172.987 244.61C171.778 244.883 169.551 245.322 168.046 245.6C166.541 245.878 165.243 246.167 165.171 246.257C165.069 246.362 173.089 246.237 191.734 245.852C206.427 245.537 228.666 245.06 241.154 244.782C253.643 244.505 267.093 244.226 278.221 244.032L278.271 244.371C278.306 244.682 278.233 244.698 277.243 244.804C276.652 244.859 270.526 244.98 263.615 245.086C256.719 245.177 251.066 245.29 251.038 245.365C251.024 245.424 230.56 245.87 205.583 246.365C172.2 247.007 158.882 247.225 155.343 247.154C152.692 247.111 149.434 247.02 148.086 246.969C146.738 246.904 144.545 246.78 143.196 246.67C141.848 246.575 139.55 246.349 138.081 246.167C136.612 245.986 134.238 245.627 132.812 245.371C131.387 245.115 129.574 244.747 128.801 244.553C128.028 244.359 126.615 243.984 125.678 243.704C124.741 243.44 123.222 242.948 122.328 242.608C121.435 242.283 119.914 241.644 118.973 241.201C118.033 240.744 116.583 239.955 115.775 239.422C114.966 238.888 114.156 238.295 114.005 238.091C113.838 237.887 113.688 237.756 113.644 237.801C113.616 237.846 113.106 237.47 112.505 236.992C111.905 236.499 110.506 235.221 109.392 234.16C108.278 233.084 106.665 231.44 105.82 230.507C104.96 229.56 103.479 227.854 102.542 226.716C101.589 225.563 100.15 223.708 99.3166 222.583C98.4829 221.458 97.3908 219.952 96.9044 219.22C96.4179 218.489 95.5969 217.245 95.0796 216.44C94.5622 215.635 93.6937 214.214 93.1447 213.291C92.5957 212.368 91.6634 210.682 91.0812 209.553C90.4842 208.423 89.6554 206.735 89.2396 205.81C88.8089 204.885 88.0988 203.21 87.6651 202.107C87.2311 200.99 86.8717 199.901 86.8678 199.679C86.8637 199.442 86.7695 199.133 86.6334 198.973C86.5122 198.812 86.4032 198.503 86.3993 198.281C86.3952 198.044 86.3002 197.691 86.1779 197.471C86.0554 197.236 85.771 196.205 85.5452 195.143C85.3195 194.081 84.9912 192.237 84.807 191.011C84.623 189.801 84.4171 188.176 84.3302 187.437C84.2412 186.58 84.1133 186.035 83.9941 185.993C83.9045 185.95 83.8124 185.759 83.8088 185.552C83.8052 185.345 83.876 185.166 83.9646 185.149C84.0528 185.118 84.1492 184.702 84.1703 184.213C84.1913 183.725 84.2823 182.998 84.3638 182.582C84.4604 182.18 84.6991 181.436 84.8977 180.944C85.1112 180.452 85.5702 179.615 85.9161 179.076C86.2619 178.537 87.0738 177.561 87.7281 176.883C88.3676 176.206 89.5193 175.194 90.2787 174.604C91.0384 174.028 92.1644 173.239 92.7643 172.843C93.3646 172.463 94.8161 171.668 95.9899 171.07C97.1639 170.487 99.1762 169.593 100.47 169.082C101.764 168.571 103.999 167.762 105.427 167.279C106.869 166.795 109.284 166.057 110.801 165.631C112.333 165.204 114.793 164.554 116.297 164.202C117.801 163.851 120.219 163.335 121.68 163.072C123.141 162.795 125.163 162.464 126.182 162.313C127.201 162.177 128.841 162 129.846 161.908C130.836 161.832 131.648 161.729 131.647 161.67C131.646 161.596 131.32 160.713 130.932 159.684C130.529 158.64 129.895 157.112 129.525 156.26C129.14 155.408 128.388 153.852 127.836 152.81C127.285 151.769 126.429 150.215 125.911 149.366C125.393 148.516 124.841 147.43 124.685 146.945C124.497 146.371 124.395 145.617 124.381 144.804C124.369 144.108 124.427 143.219 124.509 142.803C124.591 142.402 124.686 141.941 124.714 141.808C124.769 141.6 124.484 141.397 123.365 140.899C122.336 140.428 121.722 140.039 121.12 139.458C120.668 139.021 120.078 138.262 119.832 137.778C119.587 137.294 119.262 136.456 119.119 135.91C118.913 135.13 118.872 134.464 118.919 132.909C118.939 131.547 119.067 130.405 119.657 127.715L119.305 126.212C119.048 125.047 118.959 124.205 118.931 122.621C118.903 120.979 118.965 120.312 119.2 119.36C119.366 118.706 119.662 117.842 119.862 117.424C120.062 117.021 120.393 116.482 120.611 116.257C120.829 116.016 121.179 115.729 121.399 115.606C121.634 115.484 121.988 115.389 122.21 115.385C122.446 115.381 122.774 115.479 122.953 115.594C123.148 115.709 123.361 116.061 123.455 116.37C123.565 116.738 123.559 117.212 123.466 117.805C123.4 118.295 122.702 120.676 120.541 127.478L120.836 128.287C120.992 128.728 121.377 129.595 121.698 130.196C122.02 130.797 122.599 131.749 123.009 132.32C123.403 132.89 124.039 133.708 124.432 134.145C124.809 134.583 125.295 135.285 125.495 135.681C125.709 136.091 125.959 136.812 126.056 137.299C126.187 138.007 126.18 138.481 126.022 139.594C125.902 140.366 125.855 141.033 125.9 141.076C125.945 141.12 126.722 141.551 127.619 142.053C128.919 142.756 129.247 142.883 129.244 142.691C129.241 142.543 129.176 142.189 129.082 141.909C129.003 141.629 128.535 139.402 128.048 136.968C127.562 134.534 126.936 131.777 126.669 130.85C126.416 129.921 126.037 128.566 125.846 127.829C125.56 126.709 125.49 126.059 125.45 123.766C125.413 121.65 125.442 120.791 125.635 119.988C125.758 119.408 126.069 118.53 126.297 118.022C126.596 117.381 126.9 116.961 127.265 116.703C127.573 116.49 128.028 116.32 128.265 116.315C128.502 116.311 128.874 116.423 129.069 116.553C129.278 116.697 129.536 117.048 129.659 117.327C129.783 117.606 129.932 118.507 129.976 119.32C130.034 120.133 129.998 122.295 129.897 124.132C129.796 125.969 129.737 128.531 129.759 129.833C129.782 131.136 129.885 132.792 129.987 133.53C130.088 134.268 130.315 135.36 130.473 135.964C130.647 136.568 131.019 137.553 131.311 138.14C131.602 138.712 132.164 139.531 132.556 139.939C132.963 140.361 133.744 140.999 134.327 141.373C134.911 141.748 135.466 142.168 135.557 142.299C135.663 142.431 135.798 142.502 135.856 142.472C135.93 142.426 135.635 140.788 135.215 138.812C134.796 136.836 134.195 133.797 133.869 132.056C133.542 130.315 133.128 127.762 132.941 126.373C132.768 124.985 132.607 123.36 132.596 122.753C132.586 122.146 132.686 121.138 132.839 120.528C132.976 119.919 133.3 118.996 133.543 118.488C133.786 117.966 134.261 117.232 134.595 116.856C134.944 116.48 135.484 116.041 135.807 115.873C136.13 115.719 136.69 115.576 137.06 115.57C137.429 115.563 137.875 115.659 138.055 115.775C138.249 115.89 138.401 116.124 138.404 116.286C138.407 116.449 138.266 116.866 138.11 117.224C137.938 117.568 137.55 118.255 137.248 118.749C136.946 119.243 136.546 120.093 136.349 120.659C136.109 121.315 135.987 121.954 135.997 122.516C136.005 122.975 136.186 124.896 136.396 126.757C136.695 129.476 136.804 131.457 136.924 136.665C137.017 140.246 137.086 143.383 137.09 143.62C137.096 143.945 137.264 144.223 137.7 144.645C138.032 144.965 138.305 145.345 138.322 145.493C138.324 145.626 138.446 145.831 138.596 145.932C138.746 146.018 139.155 146.559 139.49 147.13C139.826 147.702 140.375 148.654 140.682 149.256C141.003 149.857 141.603 151.12 142.004 152.045C142.405 152.971 142.818 153.748 142.892 153.776C143.001 153.794 143.024 153.399 142.961 152.591C142.904 151.911 142.823 150.669 142.764 149.812C142.705 148.954 142.548 147.595 142.415 146.783C142.297 145.971 142.037 144.643 141.846 143.833C141.654 143.022 141.46 142.078 141.424 141.738C141.388 141.383 141.138 140.618 140.876 140.045C140.615 139.458 140.379 138.707 140.329 138.382C140.294 138.057 140.2 137.763 140.111 137.72C140.036 137.677 139.786 136.912 139.563 136.027C139.246 134.819 139.11 133.83 139.021 132.114C138.936 130.665 138.958 129.362 139.048 128.561C139.139 127.864 139.356 126.705 139.535 125.962C139.715 125.219 140.037 124.192 140.25 123.655C140.448 123.119 140.875 122.149 141.189 121.493C141.503 120.836 141.976 119.925 142.249 119.476C142.623 118.833 142.721 118.491 142.725 117.913C142.718 117.514 142.776 116.58 142.852 115.839C142.928 115.097 143.116 113.999 143.253 113.389C143.405 112.78 143.743 111.782 144.014 111.2C144.285 110.603 144.818 109.765 145.196 109.344C145.588 108.923 146.069 108.485 146.289 108.363C146.523 108.24 146.877 108.145 147.099 108.142C147.336 108.137 147.663 108.235 147.843 108.351C148.037 108.466 148.265 108.817 148.36 109.126C148.5 109.538 148.506 109.864 148.369 110.488C148.273 110.933 147.976 111.768 147.705 112.35C147.419 112.932 146.412 114.578 143.7 118.636L143.776 124.674C143.814 128.582 143.896 130.726 143.986 130.769C144.061 130.812 144.134 130.796 144.133 130.737C144.117 130.663 144.307 130.527 144.527 130.419C144.88 130.25 145.028 130.248 145.534 130.446C145.862 130.574 146.326 130.847 146.567 131.065C146.807 131.283 147.264 131.985 147.6 132.63C147.923 133.276 148.573 134.923 149.041 136.306C149.509 137.689 150.116 139.336 150.408 139.983C150.701 140.629 151.237 141.656 151.602 142.256C151.983 142.856 152.712 143.909 153.242 144.596C153.787 145.297 156.002 147.553 158.306 149.762C161.858 153.164 162.462 153.82 162.891 154.641C163.228 155.316 163.37 155.802 163.378 156.305C163.385 156.69 163.305 157.18 163.205 157.389C163.12 157.597 162.77 157.9 162.447 158.053C162.124 158.222 161.623 158.364 161.342 158.369C161.061 158.373 160.423 158.281 159.933 158.171C159.442 158.046 158.503 157.693 157.846 157.379C157.19 157.064 156.113 156.432 155.454 155.985C154.809 155.537 153.592 154.507 152.75 153.708C151.921 152.908 150.759 151.626 150.169 150.866C149.578 150.107 148.805 149.04 148.455 148.498C148.119 147.942 147.478 146.828 147.049 146.007C146.62 145.17 146.129 144.172 145.959 143.761C145.79 143.364 145.588 142.864 145.511 142.658C145.433 142.453 145.342 142.321 145.298 142.366C145.255 142.411 145.405 143.371 145.632 144.507C145.859 145.642 146.195 147.072 146.368 147.676C146.541 148.28 146.928 149.206 147.203 149.734C147.494 150.262 148.221 151.211 148.839 151.852C149.442 152.493 150.585 153.509 151.365 154.117C152.146 154.725 153.66 155.823 154.724 156.575C155.863 157.369 157.484 158.688 160.585 161.609L161.844 161.676C162.54 161.708 163.802 161.908 164.664 162.1C165.526 162.307 166.553 162.63 166.971 162.829C167.374 163.015 168.002 163.374 168.99 164.008L169.073 163.666C169.128 163.458 169.081 163.311 168.962 163.239C168.842 163.196 168.513 162.965 168.213 162.734C167.913 162.517 167.446 162.066 167.174 161.745C166.917 161.424 166.429 160.633 166.107 159.988C165.785 159.342 165.398 158.342 165.255 157.782C165.096 157.193 165.01 156.499 165.049 156.158C165.101 155.772 165.258 155.443 165.491 155.217C165.695 155.036 165.988 154.883 166.122 154.881C166.27 154.878 166.953 154.999 167.651 155.135C168.349 155.286 168.928 155.379 168.958 155.379C168.972 155.364 168.619 154.615 168.144 153.735C167.685 152.855 166.772 151.435 166.121 150.588C165.455 149.741 164.262 148.4 163.434 147.6C162.62 146.786 161.298 145.639 160.518 145.046C159.737 144.438 158.553 143.6 157.895 143.182C157.236 142.765 156.127 141.955 155.436 141.39C154.745 140.825 153.736 139.865 153.208 139.268C152.665 138.67 151.817 137.59 151.33 136.858C150.829 136.127 150.082 134.882 149.668 134.075C149.255 133.268 148.701 132.049 148.437 131.358C148.173 130.667 147.751 129.371 147.499 128.488C147.246 127.604 146.924 126.114 146.79 125.199C146.641 124.299 146.507 122.569 146.486 121.371C146.463 120.068 146.527 118.631 146.647 117.845C146.767 117.103 146.972 116.107 147.126 115.616C147.28 115.125 147.65 114.29 147.967 113.751C148.283 113.198 148.79 112.582 149.141 112.325C149.535 112.036 149.932 111.867 150.243 111.861C150.524 111.856 150.926 111.982 151.166 112.156C151.391 112.315 151.812 112.737 152.569 113.671L153.517 112.87C154.042 112.446 154.479 112.039 154.463 111.965C154.462 111.906 154.208 111.777 153.896 111.664C153.598 111.566 152.675 111.301 151.857 111.078C150.861 110.814 150.22 110.559 149.919 110.283C149.544 109.964 149.497 109.846 149.626 109.622C149.713 109.472 150.237 108.99 150.792 108.551C151.347 108.112 153.701 106.428 156.041 104.818C158.381 103.208 160.867 101.492 161.599 101.005C162.331 100.519 164.393 99.1211 166.208 97.92C168.022 96.7042 171.87 94.1355 174.768 92.2198C177.665 90.2893 182.011 87.4158 184.426 85.8343C186.84 84.2379 190.294 81.9721 192.109 80.7858C193.924 79.5995 197.304 77.3794 199.646 75.8435C201.987 74.3076 206.158 71.5704 208.939 69.7604C211.72 67.9504 215.891 65.2132 218.233 63.6921C220.574 62.1562 223.106 60.4985 223.867 59.9968C225.081 59.1911 225.302 59.0984 225.586 59.2415C225.779 59.3269 226.184 59.6307 226.485 59.9067C226.801 60.1824 227.1 60.3696 227.159 60.339C227.232 60.2933 227.121 59.866 226.92 59.381C226.672 58.7488 226.623 58.4388 226.723 58.2595C226.795 58.125 228.375 57.0761 230.234 55.9038C232.094 54.7464 233.866 53.6497 234.189 53.4812C234.511 53.3128 235.071 53.1698 235.441 53.1633Z" fill="white"/>
<path fill-rule="evenodd" clip-rule="evenodd" d="M235.9 53.9842C236.182 54.0237 236.613 54.1642 236.853 54.2933C237.092 54.4223 237.438 54.7715 237.606 55.0498C237.804 55.372 237.915 55.8289 237.939 56.3022C237.946 56.7017 237.866 57.236 237.782 57.4891C237.625 57.8619 236.557 58.5911 225.371 65.5954L224.122 64.4478C223.445 63.8083 222.724 63.214 222.515 63.114C222.217 62.9712 222.113 62.9878 221.924 63.1687C221.793 63.2895 221.693 63.4984 221.71 63.6166C221.712 63.7349 221.899 64.2942 222.102 64.8679C222.319 65.4414 222.625 66.0281 222.791 66.1881C222.956 66.348 223.093 66.5381 223.094 66.6268C223.096 66.7008 221.897 67.5359 220.418 68.4646C218.954 69.3931 214.489 72.2391 210.507 74.7658C206.525 77.3073 200.816 80.9594 197.844 82.8764C194.873 84.7933 192.268 86.5115 192.064 86.7075C191.86 86.8886 191.523 87.087 191.287 87.1503C191.066 87.1986 190.715 87.4563 190.483 87.6972C190.265 87.9526 189.987 88.1499 189.869 88.152C189.751 88.1689 188.462 88.9463 187.013 89.8893C185.564 90.8323 183.091 92.4593 181.525 93.4784C179.959 94.5123 176.403 96.8687 173.623 98.7231C170.843 100.578 167.39 102.903 165.942 103.905C164.494 104.892 162.067 106.592 160.531 107.67C158.996 108.748 157.212 110.022 155.342 111.402L154.551 111.061C154.133 110.876 153.181 110.567 152.437 110.387C151.694 110.193 150.95 109.969 150.756 109.884C150.577 109.783 150.427 109.667 150.425 109.593C150.409 109.534 152.105 108.321 154.182 106.893C156.259 105.465 158.424 103.992 158.98 103.612C159.536 103.232 162.316 101.392 165.126 99.5376C167.95 97.6676 172.911 94.3837 176.174 92.2396C179.438 90.0955 186.126 85.7009 191.028 82.4773C195.931 79.2536 202.297 75.1015 205.151 73.231C208.005 71.3605 212.483 68.4403 215.103 66.7219C217.723 65.0036 221.089 62.7985 222.611 61.8098C224.118 60.8065 225.377 60 225.421 59.9992C225.466 59.9985 226.128 60.6234 226.896 61.3945C227.891 62.3985 228.371 62.775 228.577 62.727C228.769 62.694 228.885 62.544 228.91 62.3067C228.936 62.099 228.763 61.5099 228.547 60.9808C228.315 60.452 227.933 59.7482 227.69 59.3971C227.447 59.0609 227.265 58.7681 227.294 58.738C227.308 58.7081 228.904 57.7033 230.837 56.5002C232.77 55.2971 234.586 54.2144 234.866 54.1059C235.145 53.9974 235.618 53.9448 235.9 53.9842ZM251.012 80.2313C251.457 80.2531 252.111 80.4045 252.469 80.5611C252.827 80.7177 253.232 81.0363 253.399 81.2998C253.567 81.5633 253.708 82.0197 253.713 82.3009C253.718 82.5968 253.55 83.1326 253.305 83.5662C253.047 84.0443 252.626 84.5106 252.115 84.8748C251.573 85.2543 249.84 86.0098 246.473 87.2972C243.797 88.3357 241.532 89.1745 241.443 89.1761C241.34 89.1779 241.009 88.8728 240.706 88.4784C240.418 88.0986 239.754 87.3849 239.242 86.8757C238.609 86.2503 238.22 85.9758 238.013 86.009C237.792 86.0425 237.705 86.192 237.682 86.5773C237.658 86.859 237.771 87.4195 237.912 87.8315C238.052 88.2287 238.345 88.9045 238.574 89.3297C238.789 89.7553 238.943 90.1226 238.9 90.1678C238.856 90.1982 236.474 91.1131 233.606 92.1993C230.739 93.2855 225.504 95.2568 221.989 96.5763C218.474 97.8958 212.254 100.24 208.166 101.776C204.077 103.313 196.342 106.201 190.959 108.22C185.577 110.223 177.209 113.33 172.355 115.131C167.502 116.918 161.722 119.047 159.515 119.855C157.324 120.663 155.44 121.288 155.365 121.245C155.291 121.202 155.136 120.82 155.04 120.392C154.944 119.98 154.893 119.61 154.922 119.595C154.951 119.565 156.817 118.748 159.079 117.761C161.341 116.774 168.35 113.795 174.654 111.139C180.958 108.483 191.171 104.205 197.358 101.639C203.545 99.0742 212.303 95.4428 216.83 93.5727C221.356 91.7174 228.793 88.6567 233.364 86.7711C237.934 84.9002 241.741 83.3536 241.83 83.3372C241.919 83.3357 242.402 83.9045 242.903 84.6359C243.405 85.3672 244.07 86.1698 244.37 86.4161C244.671 86.6773 245.015 86.8638 245.132 86.8173C245.25 86.7709 245.351 86.6359 245.349 86.5175C245.347 86.3991 245.358 86.2065 245.386 86.1024C245.414 86.0131 245.33 85.4224 245.201 84.8178C245.072 84.2132 244.835 83.3736 244.68 82.9766C244.51 82.5651 244.43 82.1965 244.488 82.1362C244.546 82.0908 245.56 81.6735 246.737 81.2385C247.913 80.7887 249.164 80.3672 249.533 80.3015C249.902 80.2211 250.567 80.1946 251.012 80.2313ZM147.086 109.074C147.53 109.096 147.53 109.096 147.516 109.984C147.513 110.665 147.402 111.111 147.002 111.918C146.731 112.5 145.911 113.846 145.189 114.91C144.468 115.973 143.817 116.873 143.729 116.889C143.655 116.92 143.595 116.832 143.592 116.714C143.59 116.596 143.654 115.973 143.731 115.335C143.809 114.712 144.056 113.597 144.265 112.854C144.489 112.11 144.901 111.14 145.19 110.691C145.478 110.242 145.927 109.687 146.175 109.46C146.495 109.173 146.774 109.05 147.086 109.074ZM150.301 112.674C150.39 112.673 150.689 112.845 150.945 113.063C151.215 113.295 151.517 113.645 151.625 113.865C151.824 114.246 151.81 114.306 151.316 114.832C151.04 115.148 150.753 115.656 150.67 115.954C150.587 116.325 150.61 116.814 150.709 117.359C150.806 117.831 151.087 118.655 151.333 119.199C151.594 119.757 151.721 120.199 151.647 120.2C151.573 120.201 150.809 120.54 149.958 120.97C148.52 121.69 148.403 121.781 148.264 122.287C148.166 122.629 148.146 123.177 148.228 123.664C148.281 124.107 148.549 125.05 148.798 125.756C149.047 126.477 149.495 127.505 149.786 128.078C150.077 128.65 150.611 129.543 150.946 130.085C151.296 130.642 152.069 131.709 152.66 132.468C153.251 133.228 154.518 134.626 155.468 135.587C156.417 136.532 157.845 137.81 158.626 138.433C159.406 139.056 161.026 140.241 162.224 141.049C163.422 141.857 164.936 142.911 165.596 143.403C166.255 143.88 167.501 144.865 168.372 145.59C169.243 146.3 170.551 147.476 171.304 148.203C172.057 148.93 173.068 150.008 173.581 150.606C174.08 151.204 174.762 152.095 175.096 152.578C175.43 153.06 175.917 153.821 176.176 154.261C176.421 154.701 176.805 155.493 177.021 156.023C177.238 156.552 177.47 157.14 177.548 157.346C177.657 157.684 177.628 157.699 177.301 157.631C177.108 157.575 175.412 157.116 173.523 156.616C171.635 156.102 170.057 155.641 170.012 155.582C169.967 155.524 169.736 155.054 169.49 154.526C169.259 153.997 168.709 152.985 168.266 152.253C167.824 151.52 166.99 150.351 166.4 149.621C165.825 148.891 164.739 147.726 164.015 146.998C163.278 146.286 162.075 145.211 161.324 144.618C160.574 144.024 159.404 143.171 158.701 142.724C157.997 142.278 156.888 141.483 156.243 140.976C155.583 140.47 154.559 139.525 153.986 138.869C153.397 138.228 152.504 137.104 152.003 136.387C151.517 135.671 150.708 134.293 150.233 133.325C149.742 132.356 149.108 130.798 148.796 129.871C148.483 128.944 148.089 127.545 147.928 126.778C147.751 126.011 147.519 124.55 147.412 123.53C147.275 122.437 147.221 121.047 147.264 120.128C147.308 119.269 147.421 118.113 147.529 117.533C147.623 116.954 147.845 116.092 148.014 115.601C148.168 115.109 148.51 114.378 148.77 113.974C149.029 113.57 149.436 113.104 149.67 112.952C149.904 112.8 150.198 112.676 150.287 112.675L150.301 112.674ZM155.304 112.631C155.378 112.66 155.575 112.908 155.728 113.186C155.927 113.538 155.992 113.892 155.957 114.426C155.919 114.826 155.725 115.54 155.51 115.988C155.296 116.436 154.937 117.064 154.735 117.378C154.534 117.692 154.315 117.889 154.27 117.83C154.209 117.772 153.992 117.213 153.775 116.61C153.557 116.007 153.277 115.257 152.892 114.405L153.52 113.906C153.856 113.634 154.367 113.225 154.644 112.998C154.921 112.771 155.215 112.618 155.304 112.631ZM152.514 115.626C152.683 115.963 153.009 116.846 153.726 118.905L153.289 119.313C153.042 119.554 152.763 119.736 152.689 119.738C152.615 119.739 152.45 119.594 152.328 119.404C152.207 119.228 151.96 118.67 151.788 118.155C151.602 117.655 151.458 117.006 151.453 116.725C151.448 116.444 151.515 116.058 151.6 115.864C151.686 115.685 151.874 115.415 152.004 115.265C152.222 114.994 152.252 115.009 152.514 115.626ZM122.166 116.274C122.491 116.268 122.597 116.355 122.676 116.665C122.739 116.9 122.678 117.612 122.541 118.266C122.419 118.919 121.958 120.496 121.536 121.762C121.129 123.027 120.665 124.397 120.524 124.814C120.383 125.216 120.211 125.559 120.137 125.561C120.063 125.562 119.938 125.194 119.872 124.751C119.79 124.309 119.754 123.11 119.766 122.089C119.802 120.756 119.891 119.94 120.115 119.196C120.283 118.616 120.522 117.946 120.637 117.707C120.751 117.468 121.054 117.033 121.301 116.763C121.601 116.442 121.89 116.279 122.166 116.274ZM137.117 116.309C137.265 116.306 137.414 116.378 137.46 116.451C137.505 116.524 137.177 117.226 136.746 117.973C136.315 118.736 135.786 119.796 135.574 120.332C135.247 121.152 135.194 121.508 135.215 122.707C135.229 123.477 135.364 125.31 135.523 126.772C135.697 128.235 135.922 130.969 136.043 132.832C136.165 134.695 136.26 136.736 136.241 137.343C136.227 138.261 136.185 138.41 136.048 138.161C135.941 138 135.572 136.378 135.215 134.549C134.843 132.72 134.401 130.33 134.219 129.237C134.037 128.145 133.767 126.241 133.642 125.029C133.485 123.611 133.42 122.442 133.482 121.775C133.546 121.197 133.695 120.395 133.821 119.993C133.962 119.576 134.174 119.01 134.317 118.726C134.46 118.442 134.836 117.903 135.14 117.542C135.444 117.167 135.955 116.744 136.278 116.59C136.601 116.451 136.984 116.311 137.117 116.309ZM128.533 117.214C128.697 117.285 128.893 117.518 128.986 117.739C129.079 117.974 129.157 119.053 129.176 120.148C129.18 121.243 129.151 122.976 129.095 123.998C129.024 125.021 128.954 126.946 128.918 128.294C128.886 129.849 128.944 131.461 129.085 132.732C129.207 133.825 129.471 135.36 129.677 136.126C129.897 136.892 130.302 138.01 130.593 138.582C130.9 139.183 131.491 140.017 131.929 140.483C132.381 140.949 133.102 141.543 133.551 141.816C134 142.09 134.719 142.595 135.139 142.943C135.575 143.291 135.937 143.669 135.939 143.788C135.941 143.906 136.016 144.008 136.09 144.007C136.179 144.006 136.153 144.198 136.04 144.482C135.926 144.75 135.845 145.181 135.863 145.417C135.868 145.654 135.771 146.085 135.628 146.339C135.499 146.608 135.401 146.935 135.404 147.054C135.406 147.172 135.304 147.307 135.187 147.353C135.054 147.4 134.65 147.126 134.168 146.661C133.746 146.224 132.844 145.455 132.184 144.949C131.524 144.427 130.864 143.95 130.715 143.879C130.536 143.778 130.335 143.293 130.081 142.336C129.875 141.57 129.328 139.048 128.858 136.732C128.389 134.416 127.763 131.63 127.463 130.54C127.147 129.45 126.766 127.961 126.591 127.224C126.382 126.295 126.275 125.246 126.234 123.752C126.193 122.258 126.25 121.265 126.399 120.493C126.522 119.884 126.816 118.961 127.059 118.438C127.315 117.871 127.633 117.437 127.868 117.299C128.132 117.157 128.353 117.128 128.533 117.214ZM153.923 120.012C153.982 120.011 154.088 120.157 154.165 120.334C154.243 120.525 154.353 120.922 154.403 121.218C154.486 121.719 154.472 121.779 154.176 121.784C153.949 121.798 153.739 121.644 153.546 121.321C153.257 120.853 153.256 120.838 153.531 120.434C153.675 120.209 153.849 120.013 153.923 120.012ZM142.8 120.502C142.874 120.501 142.975 122.897 143.029 126.005C143.102 130.178 143.215 132.426 143.486 135.219C143.684 137.243 143.907 138.986 143.997 139.058C144.073 139.131 144.107 139.412 144.067 139.649C144.027 139.887 144.215 141.334 144.493 142.854C144.771 144.388 145.175 146.335 145.413 147.204C145.635 148.089 145.933 149.06 146.087 149.383C146.226 149.707 146.622 150.366 146.956 150.848C147.276 151.331 147.895 152.075 148.318 152.527C148.74 152.964 149.657 153.791 150.348 154.357C151.039 154.922 152.628 156.093 153.857 156.96C155.101 157.826 156.857 159.231 159.416 161.629L158.973 161.74C158.723 161.789 158.252 161.945 157.913 162.07C157.516 162.21 157.209 162.422 157.11 162.661C156.967 162.96 156.969 163.108 157.123 163.401C157.215 163.607 157.666 164.028 158.101 164.346C158.521 164.65 159.181 165.127 159.555 165.401C159.93 165.661 160.247 165.996 160.279 166.129C160.296 166.262 160.195 166.426 160.063 166.473C159.916 166.535 159.663 166.495 159.499 166.409C159.335 166.323 158.524 165.656 157.697 164.945C156.87 164.219 155.896 163.496 155.523 163.34C155.09 163.14 154.556 163.046 154.038 163.055C153.594 163.078 152.959 163.192 152.637 163.346C152.313 163.485 151.595 163.912 151.025 164.277C150.454 164.657 149.506 165.488 148.91 166.12C148.3 166.752 147.489 167.803 147.101 168.461C146.713 169.119 146.213 170.193 146.003 170.848C145.792 171.503 145.612 172.202 145.63 172.409C145.635 172.66 145.476 172.915 145.111 173.188C144.776 173.475 144.415 174.014 144.073 174.76C143.788 175.416 143.438 176.547 143.289 177.335C143.086 178.433 143.053 179.07 143.147 180.223C143.205 181.037 143.403 182.188 143.576 182.762C143.749 183.351 144.09 184.248 144.336 184.747C144.567 185.261 145.084 186.066 145.478 186.548C145.871 187.029 146.669 187.83 148.352 189.236L148.366 190.079C148.377 190.701 148.488 191.099 149.067 192.036L148.454 192.55C148.103 192.822 147.505 193.292 146.364 194.111L145.47 193.757C144.978 193.573 144.145 193.321 143.611 193.227C143.076 193.117 142.29 193.042 141.876 193.05C141.447 193.057 140.782 193.128 140.398 193.223C140 193.304 139.457 193.536 139.179 193.718C138.901 193.916 138.626 194.261 138.556 194.514C138.458 194.856 138.492 195.092 138.707 195.532C138.875 195.84 139.163 196.22 139.373 196.365C139.582 196.509 140.089 196.678 140.49 196.76C140.95 196.84 141.542 196.83 142.044 196.732C142.486 196.651 143.194 196.475 143.591 196.35C144.003 196.21 144.767 195.886 145.325 195.609C146.279 195.134 146.323 195.133 146.579 195.38C146.805 195.628 146.821 195.687 146.62 196.046C146.491 196.27 146.068 196.633 145.672 196.861C145.262 197.091 144.438 197.401 143.834 197.545C142.994 197.752 142.299 197.808 140.951 197.758C139.722 197.735 138.862 197.617 138.133 197.408C137.553 197.24 136.688 196.9 136.21 196.657C135.717 196.399 135.057 195.907 134.74 195.542C134.423 195.178 134.012 194.519 133.826 194.078C133.594 193.505 133.495 192.9 133.464 191.997C133.437 191.258 133.5 190.635 133.587 190.515C133.688 190.395 134.687 189.948 135.834 189.528C136.981 189.094 137.953 188.796 138.028 188.854C138.088 188.912 137.756 189.376 137.306 189.873C136.637 190.58 136.465 190.879 136.471 191.249C136.461 191.531 136.585 191.854 136.736 192C136.916 192.159 137.422 192.298 138.193 192.389C139.038 192.477 139.808 192.464 140.856 192.312C141.669 192.209 142.701 191.984 143.142 191.814C143.583 191.643 144.17 191.337 144.433 191.14C144.681 190.943 145.029 190.552 145.202 190.283C145.418 189.924 145.473 189.656 145.406 189.213C145.356 188.889 145.139 188.374 144.927 188.067C144.714 187.775 144.323 187.397 144.069 187.238C143.71 187.037 143.309 186.956 142.658 186.967C142.14 186.976 141.739 186.939 141.768 186.864C141.781 186.805 141.925 186.521 142.068 186.237C142.239 185.894 142.293 185.567 142.229 185.302C142.165 185.022 141.969 184.833 141.582 184.677C141.209 184.52 140.586 184.457 139.757 184.472C138.869 184.487 138.22 184.587 137.543 184.821C137.013 185.008 136.236 185.421 135.797 185.725C135.359 186.029 134.747 186.587 134.442 186.962C134.123 187.338 133.648 188.116 132.892 189.728L131.23 190.334C130.333 190.675 129.494 190.971 129.406 191.002C129.259 191.035 129.257 190.916 129.396 190.411C129.508 190.068 129.86 189.026 130.17 188.103C130.494 187.194 130.828 185.989 130.907 185.425C131.013 184.713 131.006 184.269 130.88 183.842C130.785 183.518 130.524 182.99 130.267 182.669C130.025 182.347 129.469 181.898 129.036 181.669C128.334 181.296 128.081 181.241 127.119 181.273C126.498 181.284 125.716 181.401 125.348 181.541C124.715 181.774 124.671 181.775 124.385 181.513C124.22 181.368 123.756 181.095 123.339 180.91C122.742 180.654 122.341 180.587 121.335 180.619C120.27 180.638 119.975 180.702 119.344 181.053C118.949 181.268 118.465 181.572 118.29 181.723C118.13 181.874 117.811 182.264 117.61 182.593C117.394 182.923 117.224 183.385 117.228 183.636C117.233 183.888 117.372 184.255 117.554 184.474C117.751 184.752 118.05 184.91 118.421 184.962C118.718 185.002 119.265 184.963 119.633 184.852C120.001 184.757 121.162 184.263 122.204 183.771C123.246 183.265 124.201 182.848 124.305 182.847C124.394 182.845 124.514 182.947 124.56 183.064C124.607 183.182 124.643 183.551 124.649 183.877C124.654 184.202 124.502 184.782 124.316 185.17C124.13 185.573 123.857 185.993 123.711 186.128C123.492 186.31 122.976 186.408 121.512 186.507C120.462 186.57 118.956 186.774 118.189 186.935C117.422 187.111 116.627 187.318 116.421 187.395C116.156 187.518 115.89 187.508 115.488 187.397C115.19 187.298 114.937 187.184 114.936 187.11C114.934 187.051 115.138 186.855 115.386 186.658C115.635 186.477 115.998 186.056 116.184 185.727C116.371 185.383 116.525 184.892 116.519 184.566C116.512 184.152 116.404 183.917 116.088 183.612C115.862 183.394 115.265 183.093 114.774 182.939C114.044 182.7 113.526 182.665 111.676 182.712C109.768 182.76 109.251 182.828 107.984 183.191C107.174 183.412 105.954 183.892 105.264 184.26C104.575 184.612 103.653 185.25 103.217 185.672C102.78 186.094 102.214 186.77 101.955 187.174C101.71 187.578 101.398 188.309 101.273 188.8C101.134 189.305 101.057 189.987 101.108 190.357C101.144 190.726 101.346 191.285 101.558 191.592C101.756 191.9 102.193 192.306 102.522 192.493C102.85 192.68 103.625 192.933 104.234 193.055C105.11 193.232 105.88 193.249 107.862 193.155C109.252 193.086 110.907 192.939 112.767 192.596L113.578 193.292C114.029 193.684 114.658 194.117 114.986 194.259C115.315 194.416 115.984 194.612 116.474 194.692C117.009 194.786 117.912 194.8 118.769 194.726C119.537 194.653 120.837 194.453 121.648 194.276C122.459 194.099 124.123 193.641 125.33 193.264C126.553 192.888 127.642 192.543 127.759 192.497C127.951 192.419 127.984 192.641 128.009 194.061C128.029 195.201 128.116 195.984 128.304 196.543C128.445 196.985 128.75 197.542 128.991 197.774C129.217 198.007 129.876 198.41 130.458 198.666C131.039 198.923 132.2 199.287 133.062 199.48C133.924 199.687 135.557 199.969 136.7 200.127C138.51 200.376 139.384 200.405 143.513 200.333C147.834 200.273 148.41 200.233 150.092 199.893C151.11 199.697 152.436 199.349 153.039 199.131C153.642 198.913 154.479 198.543 154.875 198.3C155.505 197.918 155.637 197.887 155.833 198.061C155.953 198.177 156.657 198.624 157.405 199.069C158.167 199.515 159.257 200.029 159.911 200.21C160.551 200.406 161.412 200.554 161.871 200.546C162.315 200.538 162.861 200.454 163.097 200.362C163.317 200.284 163.668 200.026 163.901 199.8C164.119 199.574 164.364 199.17 164.433 198.902C164.545 198.545 164.512 198.339 164.344 198.06C164.222 197.855 163.832 197.566 163.489 197.424C163.131 197.267 162.314 197.089 161.661 197.012C161.009 196.949 159.66 196.854 158.653 196.798C157.66 196.756 156.845 196.681 156.844 196.637C156.843 196.592 156.97 196.191 157.139 195.744C157.337 195.192 157.404 194.762 157.338 194.408C157.289 194.128 157.089 193.731 156.894 193.542C156.713 193.353 156.294 193.079 155.965 192.937C155.637 192.795 155.398 192.666 155.442 192.65C155.487 192.649 155.945 192.597 156.477 192.573C157.009 192.534 157.777 192.417 158.175 192.321C158.809 192.177 158.942 192.189 159.183 192.407C159.334 192.552 159.426 192.743 159.383 192.818C159.34 192.893 159.539 193.289 159.813 193.699C160.086 194.094 160.75 194.807 161.276 195.272C161.877 195.794 162.745 196.341 163.581 196.741C164.327 197.084 165.609 197.579 167.96 198.293L167.67 198.668C167.511 198.878 167.382 199.117 167.384 199.191C167.385 199.265 167.567 199.499 167.792 199.702C168.153 200.036 168.302 200.063 169.827 200.081C170.804 200.094 172.267 199.994 173.404 199.826C174.615 199.642 176.64 199.503 178.875 199.45C181.745 199.37 182.602 199.296 183.309 199.076C183.794 198.92 184.514 198.611 184.91 198.397C185.306 198.168 185.772 197.745 185.945 197.461C186.247 196.953 186.365 196.906 188.824 196.167C190.237 195.743 192.636 194.961 194.181 194.431C195.726 193.901 197.932 193.063 199.108 192.569C200.283 192.089 201.972 191.32 202.853 190.875C203.733 190.416 204.964 189.713 205.564 189.303C206.163 188.893 206.966 188.228 207.329 187.822C207.721 187.4 208.066 186.832 208.149 186.49C208.232 186.163 208.269 185.733 208.221 185.527C208.173 185.32 208.049 184.997 207.957 184.806C207.85 184.615 207.594 184.368 207.37 184.268C207.132 184.154 206.597 184.075 206.183 184.082C205.754 184.089 205.001 184.221 204.515 184.348C204.029 184.49 203.308 184.754 202.163 185.307L201.526 184.4C201.177 183.918 200.78 183.214 200.64 182.846C200.515 182.479 200.403 181.962 200.398 181.696C200.393 181.385 200.449 181.236 200.583 181.278C200.672 181.306 201.296 181.429 201.95 181.565C202.693 181.715 203.463 181.776 204.025 181.722C204.778 181.634 204.97 181.557 205.259 181.197C205.607 180.761 205.607 180.747 205.474 178.247C205.406 176.872 205.259 175.261 205.161 174.7C205.062 174.14 204.832 172.811 204.65 171.749C204.337 169.904 204.321 169.815 204.582 169.559C204.728 169.409 204.947 169.257 205.065 169.21C205.183 169.179 205.539 169.232 205.852 169.359C206.15 169.473 206.852 169.845 207.42 170.161C207.974 170.492 208.962 171.17 209.622 171.662C210.282 172.154 211.335 173.083 211.953 173.723C212.571 174.364 213.327 175.283 213.616 175.752C213.906 176.22 214.274 176.939 214.414 177.351C214.584 177.792 214.686 178.545 214.714 179.27C214.725 179.921 214.638 180.855 214.528 181.346C214.418 181.836 214.093 182.715 213.822 183.282C213.55 183.85 212.917 184.867 212.41 185.527C211.904 186.188 210.93 187.226 210.26 187.83C209.589 188.434 208.304 189.433 207.427 190.055C206.549 190.662 205.085 191.591 204.206 192.095C203.327 192.599 201.831 193.38 200.906 193.81C199.981 194.241 198.424 194.934 197.454 195.336C196.484 195.753 194.705 196.435 193.484 196.885C192.278 197.321 190.291 197.992 189.069 198.369C187.862 198.745 185.668 199.39 184.209 199.786C182.751 200.181 180.304 200.786 178.756 201.139C177.208 201.477 174.789 201.978 173.373 202.254C171.956 202.516 169.802 202.894 168.576 203.078C167.366 203.277 165.062 203.584 163.481 203.759C161.901 203.95 159.241 204.203 157.571 204.336C155.723 204.472 153.06 204.548 150.765 204.544C148.693 204.521 145.953 204.465 144.694 204.398C143.434 204.331 141.034 204.166 139.359 204.032C137.684 203.899 135.356 203.673 134.169 203.531C132.982 203.389 130.816 203.086 129.347 202.875C127.877 202.649 125.547 202.26 124.151 202.003C122.755 201.747 120.526 201.282 119.174 200.98C117.822 200.678 115.25 200.027 113.45 199.541C111.651 199.054 109.077 198.3 107.722 197.864C106.367 197.429 103.821 196.526 102.062 195.861C100.304 195.196 97.7846 194.174 96.4718 193.59C95.159 193.006 93.847 192.467 93.5645 192.398C93.2821 192.329 92.909 192.158 92.7434 191.998C92.5781 191.853 92.2037 191.607 91.9203 191.479C91.6365 191.336 90.8588 190.876 90.2002 190.458C89.5416 190.04 88.6268 189.361 88.1751 188.925C87.7089 188.503 86.8034 187.513 86.168 186.724C85.0793 185.411 85.0027 185.265 84.9911 184.599C84.9844 184.214 85.0603 183.472 85.1694 182.938C85.2636 182.403 85.5594 181.539 85.8165 181.002C86.0735 180.465 86.5913 179.597 86.9667 179.058C87.3422 178.518 88.1115 177.646 88.6499 177.119C89.203 176.576 90.107 175.791 90.6766 175.352C91.2462 174.912 92.2842 174.169 93.0161 173.697C93.748 173.226 95.0668 172.463 95.9472 172.018C96.8276 171.573 98.2957 170.882 99.1774 170.511C100.059 170.125 101.985 169.381 103.441 168.853C104.898 168.339 106.987 167.636 108.077 167.292C109.166 166.962 111.258 166.363 112.716 165.967C114.175 165.572 116.371 165.03 117.58 164.757C118.804 164.484 120.987 164.047 122.447 163.769C123.908 163.507 126.063 163.173 127.245 163.049C128.427 162.91 129.964 162.75 130.688 162.693C131.915 162.583 131.974 162.597 132.113 162.905C132.19 163.096 132.506 164.201 133.422 167.515L132.71 169.97C132.304 171.324 131.876 173.063 131.726 173.836C131.577 174.608 131.435 175.81 131.388 176.506C131.343 177.291 131.387 178.149 131.517 178.798C131.616 179.359 131.835 180.066 131.973 180.344C132.126 180.623 132.368 180.9 132.502 180.957C132.636 181.029 132.918 181.068 133.155 181.064C133.407 181.06 133.7 180.906 133.947 180.65C134.165 180.41 134.466 179.857 134.621 179.41C134.776 178.963 134.967 178.027 135.059 177.33C135.163 176.514 135.17 175.211 135.083 173.629C135.014 172.254 134.804 170.392 134.28 167.5L135.752 162.797L136.198 162.878C136.436 162.933 137.106 163.173 137.688 163.429C138.359 163.743 138.929 164.133 139.306 164.541C139.623 164.891 140.033 165.476 140.217 165.842C140.492 166.37 140.558 166.754 140.576 167.76C140.588 168.471 140.498 169.272 140.386 169.614C140.273 169.942 140.015 170.405 139.812 170.645C139.609 170.886 139.039 171.281 138.54 171.526C138.025 171.757 137.309 172.243 136.945 172.59C136.464 173.057 136.234 173.446 136.081 173.982C135.969 174.383 135.891 174.992 135.897 175.317C135.903 175.643 136.055 176.75 136.565 179.672L135.808 180.381C135.4 180.788 134.878 181.404 134.648 181.778C134.389 182.212 134.248 182.643 134.255 182.999C134.26 183.309 134.37 183.663 134.49 183.779C134.611 183.895 134.849 183.995 135.012 183.992C135.175 183.989 135.557 183.849 135.866 183.696C136.159 183.543 136.553 183.24 136.727 183.044C136.902 182.864 137.146 182.445 137.259 182.132C137.387 181.834 137.48 181.24 137.474 180.841C137.461 180.13 137.504 180.055 138.491 178.928C139.173 178.161 139.707 177.367 140.078 176.576C140.378 175.92 140.786 174.743 140.98 173.97C141.174 173.197 141.418 171.92 141.523 171.148C141.628 170.377 141.714 169.384 141.707 168.954C141.699 168.54 141.546 167.359 141.365 166.34C141.184 165.322 140.818 163.848 140.553 163.054C140.273 162.274 139.823 161.127 139.532 160.526C139.255 159.923 139.024 159.409 139.023 159.38C139.023 159.365 139.199 159.258 139.433 159.136C139.654 159.028 139.958 158.668 140.101 158.354C140.329 157.877 140.353 157.566 140.262 156.59C140.205 155.851 140.012 154.996 139.749 154.305C139.516 153.702 139.055 152.718 138.734 152.132C138.154 151.121 138.137 151.032 138.209 150.069C138.258 149.461 138.198 148.589 138.067 147.821C137.951 147.127 137.836 146.493 137.835 146.419C137.834 146.345 137.921 146.269 138.039 146.267C138.158 146.265 138.263 146.367 138.28 146.485C138.297 146.603 138.664 147.293 139.091 148.025C139.519 148.758 140.223 150.078 140.638 150.959C141.053 151.84 141.748 153.5 143.002 156.69L142.891 160.467C142.823 162.54 142.818 164.776 142.889 165.426C142.959 166.076 143.123 167.005 143.28 167.491C143.469 168.124 143.713 168.549 144.15 168.986C144.527 169.379 144.886 169.609 145.123 169.605C145.33 169.602 145.609 169.493 145.74 169.343C145.885 169.192 146.054 168.701 146.12 168.256C146.186 167.766 146.17 166.849 146.08 165.962C145.992 165.149 145.73 163.689 145.52 162.715C145.311 161.742 144.868 160.092 143.957 157.118L143.783 153.05C143.684 150.802 143.491 148.185 143.34 147.211C143.19 146.237 142.912 144.747 142.735 143.891C142.542 143.036 142.304 142.137 142.197 141.902C142.089 141.667 141.935 141.3 141.887 141.093C141.824 140.887 141.743 140.519 141.724 140.282C141.705 140.046 141.488 139.443 141.257 138.958C141.027 138.474 140.809 137.871 140.775 137.634C140.756 137.398 140.579 136.557 140.388 135.791C140.212 135.024 139.966 133.696 139.877 132.839C139.74 131.732 139.723 130.799 139.835 129.584C139.908 128.65 140.092 127.314 140.257 126.616C140.408 125.917 140.687 124.95 140.856 124.459C141.04 123.967 141.452 122.968 141.779 122.222C142.107 121.477 142.435 120.79 142.522 120.685C142.609 120.595 142.726 120.504 142.8 120.502ZM152.661 121.514C152.691 121.514 152.797 121.66 152.889 121.836C153.012 122.1 153.014 122.204 152.852 122.281C152.75 122.342 152.514 122.405 151.996 122.414L152.299 121.965C152.458 121.725 152.617 121.515 152.661 121.514ZM157.384 127.501C157.443 127.5 158.001 128.067 158.62 128.767C159.239 129.467 160.221 130.604 160.796 131.29C161.355 131.976 162.082 132.896 162.4 133.334C162.704 133.773 163.115 134.417 163.298 134.754C163.467 135.107 163.624 135.592 163.628 135.829C163.633 136.125 163.538 136.324 163.342 136.426C163.181 136.503 162.857 136.583 162.605 136.587C162.353 136.592 161.982 136.509 161.758 136.395C161.519 136.295 161.084 135.918 160.767 135.568C160.45 135.219 159.887 134.34 159.519 133.607C159.15 132.873 158.502 131.315 158.066 130.109C157.631 128.918 157.272 127.843 157.27 127.725C157.267 127.607 157.31 127.502 157.384 127.501ZM120.201 129.186C120.246 129.23 120.582 129.816 120.934 130.506C121.301 131.195 121.911 132.206 122.306 132.776C122.701 133.346 123.337 134.164 123.729 134.601C124.122 135.039 124.607 135.726 124.807 136.137C125.006 136.533 125.211 137.24 125.263 137.683C125.33 138.126 125.301 138.985 125.222 139.564C125.144 140.157 125.004 140.648 124.93 140.649C124.856 140.651 124.29 140.424 123.708 140.153C123.096 139.882 122.287 139.348 121.866 138.956C121.46 138.564 120.93 137.922 120.701 137.526C120.472 137.13 120.179 136.41 120.037 135.924C119.879 135.379 119.774 134.448 119.758 133.487C119.743 132.628 119.824 131.369 119.945 130.671C120.052 129.973 120.144 129.335 120.143 129.261C120.127 129.187 120.17 129.142 120.201 129.186ZM145.058 131.121C145.221 131.118 145.564 131.304 145.835 131.536C146.09 131.754 146.499 132.265 146.728 132.66C146.957 133.056 147.67 134.909 148.324 136.762C149.009 138.704 149.829 140.733 150.258 141.539C150.671 142.302 151.386 143.459 151.857 144.102C152.312 144.745 153.159 145.796 153.733 146.438C154.306 147.079 156.204 148.94 157.965 150.582C159.725 152.224 161.382 153.853 161.669 154.218C161.942 154.583 162.279 155.199 162.434 155.611C162.574 156.008 162.642 156.496 162.6 156.674C162.559 156.867 162.416 157.121 162.285 157.242C162.154 157.377 161.771 157.473 161.297 157.481C160.868 157.489 160.126 157.368 159.635 157.214C159.143 157.045 158.308 156.69 157.77 156.418C157.232 156.131 156.425 155.642 155.975 155.309C155.525 154.992 154.715 154.354 154.189 153.92C153.663 153.47 152.715 152.554 152.096 151.869C151.492 151.184 150.523 149.972 149.947 149.168C149.385 148.364 148.609 147.149 148.227 146.46C147.845 145.771 147.293 144.685 147 144.039C146.708 143.392 146.212 142.099 145.884 141.172C145.557 140.245 145.262 139.406 145.216 139.333C145.17 139.26 145.107 139.054 145.105 138.891C145.087 138.728 144.908 137.829 144.7 136.9C144.41 135.543 144.354 134.878 144.375 133.575C144.404 132.686 144.507 131.767 144.606 131.528C144.706 131.304 144.91 131.123 145.058 131.121ZM125.634 141.969C125.664 141.969 125.917 142.068 126.186 142.196C126.44 142.325 127.336 142.813 128.158 143.272C129.653 144.119 129.653 144.119 129.935 144.958C130.106 145.429 130.461 146.266 130.737 146.839C131.028 147.411 131.514 148.098 131.83 148.389C132.146 148.694 132.581 148.997 132.819 149.082C133.117 149.195 133.25 149.193 133.337 149.073C133.394 148.968 133.645 148.92 133.957 148.973C134.239 149.013 134.608 148.962 134.769 148.885C134.975 148.778 135.167 148.775 135.406 148.889C135.585 148.975 135.736 149.12 135.737 149.194C135.738 149.268 136.088 149.78 136.497 150.321C136.921 150.876 137.257 151.447 137.259 151.61C137.262 151.773 137.171 152.499 137.066 153.241C136.946 153.984 136.799 154.889 136.596 155.988L135.965 155.451C135.604 155.162 135.095 154.83 134.842 154.731C134.574 154.632 134.143 154.551 133.906 154.555C133.669 154.559 133.257 154.67 133.022 154.792C132.788 154.915 132.511 155.171 132.425 155.35C132.325 155.559 132.316 155.9 132.381 156.21C132.461 156.564 132.749 156.958 133.276 157.452C133.712 157.844 134.476 158.364 134.984 158.607C135.819 158.992 135.894 159.064 135.812 159.406C135.771 159.614 135.59 160.254 135.422 160.819C135.269 161.384 135.055 161.862 134.952 161.864C134.848 161.865 134.285 161.86 132.627 161.83L132.346 160.991C132.175 160.521 131.602 159.05 131.045 157.713C130.489 156.376 129.611 154.423 129.075 153.381C128.554 152.339 127.529 150.447 126.811 149.202C125.789 147.443 125.45 146.709 125.304 145.972C125.158 145.249 125.149 144.701 125.265 143.708C125.341 142.996 125.448 142.313 125.49 142.194C125.532 142.075 125.605 141.97 125.634 141.969ZM131.527 145.449C131.752 145.637 132.263 146.043 132.668 146.361C133.073 146.68 133.659 147.202 133.976 147.523C134.428 147.988 134.505 148.135 134.36 148.3C134.258 148.406 133.963 148.5 133.727 148.519C133.402 148.539 133.118 148.411 132.622 147.975C132.216 147.627 131.777 147.028 131.454 146.382C131.178 145.81 130.977 145.31 131.02 145.235C131.063 145.175 131.287 145.275 131.527 145.449ZM136.911 146.095C136.99 146.36 137.104 146.95 137.186 147.392C137.267 147.835 137.34 148.589 137.378 149.905L136.55 149.106C136.098 148.67 135.72 148.232 135.719 148.158C135.718 148.084 135.816 147.801 135.931 147.562C136.045 147.324 136.17 146.863 136.209 146.551C136.248 146.254 136.375 145.912 136.522 145.805C136.741 145.639 136.786 145.668 136.911 146.095ZM138.14 152.897C138.2 152.926 138.461 153.439 138.738 154.041C139 154.644 139.312 155.6 139.396 156.161C139.51 156.766 139.536 157.373 139.467 157.64C139.397 157.893 139.166 158.223 138.962 158.389C138.742 158.556 138.552 158.663 138.521 158.619C138.506 158.575 138.217 158.15 137.305 156.79L137.6 155.008C137.775 154.028 137.937 153.137 137.965 153.033C138.008 152.929 138.081 152.868 138.14 152.897ZM134.216 155.363C134.425 155.419 134.843 155.619 135.172 155.835C135.487 156.052 135.878 156.4 136.029 156.62C136.227 156.912 136.291 157.192 136.253 157.548C136.2 157.919 136.114 158.069 135.936 158.072C135.788 158.074 135.266 157.832 134.772 157.53C134.279 157.227 133.723 156.793 133.527 156.545C133.345 156.311 133.177 156.048 133.161 155.944C133.159 155.856 133.304 155.661 133.494 155.524C133.714 155.387 133.994 155.323 134.216 155.363ZM166.478 155.777C166.685 155.774 167.427 155.909 169.375 156.378L169.593 157.04C169.703 157.408 169.854 158.398 169.913 159.255C169.974 160.172 169.961 161.164 169.866 161.654C169.786 162.159 169.645 162.516 169.541 162.518C169.437 162.52 169.094 162.333 168.764 162.117C168.45 161.901 167.998 161.464 167.77 161.143C167.543 160.821 167.146 160.162 166.886 159.678C166.641 159.194 166.317 158.43 166.176 157.988C166.035 157.547 165.905 156.912 165.885 156.572C165.864 156.247 165.903 155.921 165.976 155.875C166.049 155.814 166.27 155.766 166.478 155.777ZM171.56 156.932C172.244 157.098 173.88 157.543 175.189 157.89C176.498 158.252 177.658 158.587 177.763 158.644C177.882 158.702 178.012 159.351 178.133 160.37C178.239 161.315 178.322 163.564 178.316 165.769C178.303 168.404 178.24 169.886 178.091 170.658C177.968 171.267 177.758 171.937 177.628 172.146C177.499 172.356 177.312 172.67 177.241 172.834C177.155 173.013 176.821 173.374 176.5 173.632C176.033 174.01 175.886 174.072 175.75 173.926C175.659 173.824 175.401 173.443 174.776 172.418L175.433 171.889C175.798 171.601 176.292 171.089 176.524 170.759C176.74 170.43 177.041 169.862 177.153 169.49C177.279 169.118 177.373 168.554 177.367 168.228C177.361 167.873 177.189 167.314 176.943 166.83C176.699 166.39 176.276 165.879 175.99 165.662C175.691 165.46 174.303 164.789 172.885 164.162C170.872 163.279 170.334 162.978 170.404 162.799C170.462 162.68 170.586 162.174 170.681 161.684C170.791 161.194 170.865 160.378 170.856 159.86C170.848 159.357 170.728 158.427 170.598 157.793C170.469 157.173 170.341 156.642 170.341 156.628C170.326 156.628 170.876 156.752 171.56 156.932ZM198.851 156.678C199.014 156.66 199.253 156.774 199.388 156.92C199.524 157.066 199.813 157.505 200.027 157.915C200.227 158.312 200.691 159.473 201.034 160.488C201.378 161.504 201.946 163.507 202.311 164.936C202.662 166.381 203.045 168.002 203.354 169.551L202.719 170.524C202.374 171.063 201.758 172.243 201.344 173.139C200.93 174.034 200.435 175.316 200.224 175.971C200.028 176.625 199.768 177.799 199.648 178.571C199.528 179.343 199.421 179.996 199.422 180.026C199.407 180.041 198.844 179.991 198.147 179.915C197.108 179.8 196.798 179.805 196.372 179.99C195.946 180.175 195.801 180.37 195.518 181.1C195.334 181.577 194.921 182.517 194.607 183.174C194.292 183.831 193.877 184.637 193.661 184.967C193.459 185.296 192.896 186.105 192.419 186.764C191.942 187.424 191.13 188.4 190.607 188.928C190.083 189.455 189.238 190.21 188.712 190.633C188.186 191.042 187.029 191.743 186.149 192.203C185.196 192.708 183.961 193.203 183.136 193.425C182.37 193.631 180.969 193.921 180.039 194.071C179.109 194.22 177.351 194.429 176.124 194.524C174.75 194.637 173.137 194.665 171.907 194.598C170.811 194.543 169.402 194.405 168.793 194.297C168.185 194.204 167.174 193.97 166.564 193.803C165.954 193.636 165.195 193.368 164.896 193.225C164.583 193.068 164.196 192.956 164.033 192.959C163.87 192.962 163.586 192.804 163.405 192.6C163.209 192.411 162.97 192.237 162.881 192.239C162.777 192.241 162.582 192.081 162.46 191.876C162.338 191.671 162.037 191.41 161.784 191.296C161.485 191.153 160.996 191.102 160.36 191.128C159.502 191.188 159.354 191.146 159.201 190.897C159.11 190.736 158.747 190.327 158.401 189.978C157.949 189.557 157.575 189.341 157.204 189.289C156.893 189.235 156.078 189.234 155.384 189.291C154.482 189.351 153.951 189.479 153.511 189.708C153.057 189.953 152.853 190.164 152.799 190.446C152.759 190.713 152.808 190.979 152.96 191.183C153.096 191.373 153.427 191.649 153.696 191.807C153.95 191.965 154.428 192.179 154.725 192.278C155.023 192.361 155.247 192.49 155.204 192.55C155.175 192.625 154.835 192.631 154.45 192.593C154.049 192.556 153.369 192.597 152.926 192.679C152.219 192.825 152.07 192.812 151.815 192.58C151.649 192.435 151.275 192.205 150.992 192.076C150.708 191.933 150.454 191.819 150.424 191.805C150.41 191.805 150.494 191.537 150.607 191.225C150.791 190.762 150.788 190.6 150.618 190.188C150.495 189.939 150.193 189.544 149.937 189.312C149.471 188.935 149.456 188.891 149.593 188.252C149.66 187.881 149.722 187.184 149.698 185.808L151.385 183.218C152.308 181.81 153.285 180.135 153.57 179.523C153.998 178.569 154.066 178.242 154.065 177.339C154.05 176.495 153.986 176.2 153.728 175.864C153.547 175.646 153.052 175.284 152.604 175.055C152.022 174.769 151.189 174.577 149.616 174.338C148.399 174.152 147.27 173.935 147.091 173.849C146.868 173.749 146.792 173.647 146.894 173.556C146.981 173.466 147.589 173.5 148.523 173.631C149.414 173.764 150.451 173.82 151.116 173.764C151.855 173.706 152.43 173.563 152.856 173.349C153.193 173.165 153.748 172.756 154.098 172.424C154.432 172.107 155.041 171.356 155.43 170.758C155.964 169.949 156.4 169.512 157.102 169.026C157.629 168.677 158.479 168.188 159.962 167.511L161.965 167.742C163.062 167.871 164.101 168.031 164.265 168.087C164.533 168.186 164.565 168.304 164.541 169.503C164.528 170.406 164.636 171.515 164.929 173.034C165.142 174.244 165.359 175.617 165.381 176.061C165.404 176.504 165.43 177.17 165.404 178.207L164.567 178.577C164.096 178.777 163.421 179.115 163.055 179.328C162.689 179.542 162.075 179.982 161.666 180.329C161.272 180.662 160.69 181.235 160.386 181.61C160.097 181.985 159.709 182.673 159.554 183.12C159.356 183.656 159.236 184.413 159.208 185.346C159.169 186.516 159.205 186.885 159.469 187.562C159.654 188.003 160.005 188.633 160.263 188.954C160.52 189.275 160.731 189.494 160.715 189.42C160.714 189.361 161.028 189.548 161.433 189.837C161.822 190.126 162.451 190.514 162.854 190.7C163.242 190.886 163.586 191.116 163.632 191.19C163.678 191.263 163.871 191.333 164.079 191.33C164.286 191.326 164.598 191.41 164.793 191.525C164.972 191.64 165.716 191.849 166.458 191.984C167.527 192.173 168.49 192.215 171.346 192.15C174.276 192.099 175.266 192.023 177.037 191.711C178.218 191.512 180.179 191.064 181.387 190.732C182.61 190.399 184.332 189.837 185.214 189.481C186.096 189.14 187.549 188.448 188.429 187.974C189.309 187.5 190.435 186.74 190.946 186.302C191.456 185.878 192.11 185.156 192.384 184.722C192.701 184.243 192.942 183.632 193.007 183.128C193.101 182.593 193.076 181.972 192.976 181.352C192.878 180.821 192.627 180.026 192.398 179.586C192.168 179.146 191.577 178.357 191.079 177.847C190.582 177.338 189.741 176.642 189.202 176.311C188.663 175.965 187.797 175.492 187.26 175.264C186.723 175.037 185.755 174.684 185.1 174.488C184.445 174.292 183.345 174.03 182.647 173.909C181.95 173.803 180.689 173.677 179.831 173.662C178.898 173.634 178.217 173.676 178.13 173.766C178.033 173.866 177.924 173.844 177.803 173.698C177.638 173.523 177.665 173.419 177.898 173.178C178.058 173.012 178.318 172.623 178.46 172.31C178.618 172.011 178.825 171.163 178.945 170.421C179.051 169.679 179.171 168.078 179.194 166.864C179.217 165.635 179.163 163.416 179.063 161.908C178.963 160.4 178.911 159.128 178.939 159.053C178.953 158.994 180.545 159.454 182.451 160.087C184.341 160.706 186.217 161.324 186.619 161.45C187.006 161.577 187.319 161.719 187.32 161.764C187.336 161.808 186.8 162.483 186.147 163.264C185.495 164.045 184.755 164.932 184.509 165.217C184.247 165.503 183.262 166.69 182.305 167.861C181.363 169.017 180.307 170.412 179.961 170.936C179.629 171.46 179.343 171.998 179.345 172.116C179.347 172.235 179.454 172.44 179.589 172.556C179.785 172.73 179.903 172.743 180.153 172.606C180.329 172.514 180.87 172.119 181.351 171.741C181.833 171.363 182.65 170.667 183.175 170.199C183.699 169.716 184.704 168.781 185.433 168.102C186.146 167.424 187.223 166.398 187.835 165.825C188.447 165.252 189.889 163.895 191.039 162.824C192.205 161.752 193.881 160.258 194.756 159.517C195.631 158.762 196.858 157.823 197.458 157.413C198.058 157.017 198.688 156.681 198.851 156.678ZM136.949 159.298C137.069 159.34 137.38 159.394 137.618 159.434C137.989 159.501 138.14 159.662 138.584 160.498C138.86 161.055 139.26 161.922 139.462 162.451C139.678 162.98 139.835 163.495 139.837 163.584C139.839 163.703 139.525 163.56 139.136 163.286C138.731 163.011 138.118 162.667 137.746 162.511C137.373 162.354 136.822 162.171 136.51 162.118C136.198 162.049 135.974 161.92 136.002 161.845C136.03 161.771 136.197 161.146 136.378 160.462C136.643 159.525 136.771 159.256 136.949 159.298ZM143.903 159.931C143.978 160.004 144.182 160.666 144.358 161.403C144.548 162.14 144.805 163.29 144.95 163.983C145.081 164.677 145.251 165.932 145.31 166.79C145.372 167.795 145.354 168.417 145.253 168.567C145.123 168.762 145.033 168.719 144.656 168.311C144.4 168.064 144.125 167.595 144.031 167.286C143.922 166.991 143.794 165.543 143.738 164.079C143.668 162.614 143.656 161.046 143.707 160.601C143.743 160.126 143.842 159.843 143.903 159.931ZM133.899 162.637C134.344 162.674 134.745 162.741 134.79 162.784C134.835 162.813 134.668 163.438 134.444 164.182C134.205 164.911 133.935 165.508 133.846 165.51C133.742 165.511 133.652 165.424 133.65 165.32C133.649 165.232 133.46 164.599 133.226 163.936C133.007 163.259 132.864 162.685 132.937 162.639C133.01 162.593 133.44 162.586 133.899 162.637ZM159.654 162.587C160.306 162.605 160.321 162.62 161.606 164.152C162.317 165.013 163.134 166.02 163.952 167.116L162.988 167.014C162.454 166.964 161.832 166.901 161.579 166.861C161.178 166.794 161.133 166.735 161.17 166.32C161.209 165.994 161.1 165.715 160.858 165.423C160.677 165.189 160.001 164.653 159.387 164.235C158.773 163.831 158.158 163.383 158.038 163.252C157.917 163.121 157.84 162.974 157.884 162.944C157.928 162.898 158.193 162.805 158.473 162.726C158.752 162.647 159.284 162.579 159.654 162.587ZM161.295 162.47L162.288 162.541C162.837 162.591 163.846 162.751 164.545 162.916C165.243 163.067 166.211 163.376 166.703 163.604C167.196 163.847 167.764 164.148 167.974 164.307C168.229 164.495 168.32 164.656 168.249 164.82C168.177 164.955 167.476 165.5 166.672 166.047C165.867 166.594 165.181 167.124 165.138 167.213C165.096 167.332 165.037 167.348 164.991 167.26C164.945 167.187 164.429 166.456 163.838 165.652C163.246 164.848 162.429 163.797 162.036 163.33L161.295 162.47ZM153.889 163.842C154.022 163.84 154.378 163.893 154.705 163.976C155.032 164.074 155.524 164.273 155.779 164.446C156.034 164.619 156.574 165.039 156.98 165.402C157.386 165.765 157.957 166.273 158.273 166.534C158.678 166.867 158.785 167.028 158.653 167.134C158.551 167.195 158.038 167.485 157.525 167.775C157.012 168.066 156.251 168.597 155.858 168.974C155.465 169.351 154.899 170.027 154.596 170.476C154.308 170.925 153.816 171.541 153.495 171.813C153.189 172.099 152.633 172.479 152.266 172.648C151.811 172.849 151.294 172.947 150.569 172.959C150.007 172.969 149.177 172.909 148.717 172.829C148.271 172.748 147.603 172.656 147.233 172.633C146.877 172.609 146.55 172.541 146.535 172.497C146.519 172.438 146.529 172.142 146.568 171.845C146.622 171.533 146.861 170.818 147.102 170.237C147.359 169.67 147.789 168.863 148.048 168.444C148.322 168.04 148.872 167.334 149.279 166.898C149.686 166.447 150.444 165.767 150.955 165.359C151.481 164.965 152.124 164.524 152.388 164.372C152.667 164.219 153.063 164.049 153.269 163.971C153.49 163.908 153.77 163.844 153.889 163.842ZM170.008 163.842C170.067 163.841 171.216 164.324 172.559 164.937C173.916 165.535 175.23 166.164 175.47 166.352C175.724 166.525 176.057 166.919 176.21 167.227C176.379 167.55 176.506 168.081 176.498 168.436C176.489 168.777 176.351 169.327 176.193 169.655C176.036 169.983 175.602 170.554 175.224 170.93C174.846 171.307 174.481 171.594 174.406 171.581C174.347 171.552 173.844 170.747 173.294 169.78C172.745 168.812 171.998 167.597 171.634 167.07C171.284 166.543 170.664 165.77 170.257 165.348C169.563 164.62 169.532 164.546 169.718 164.202C169.833 164.008 169.964 163.843 170.008 163.842ZM169.013 165.34C169.057 165.324 169.328 165.571 169.629 165.877C169.916 166.182 170.506 166.927 170.931 167.527C171.356 168.126 172.118 169.401 173.571 172.069L172.952 172.243C172.511 172.369 172.17 172.375 171.799 172.278C171.516 172.194 171.128 172.008 170.933 171.864C170.738 171.719 170.328 171.119 170.021 170.518C169.592 169.667 169.289 169.287 168.705 168.868C168.3 168.564 167.552 168.163 167.061 167.979C166.569 167.795 166.151 167.58 166.135 167.521C166.104 167.448 166.44 167.176 166.865 166.917C167.289 166.643 167.932 166.188 168.282 165.885C168.647 165.583 168.983 165.34 169.013 165.34ZM166.168 168.557C166.346 168.598 166.719 168.725 167.002 168.839C167.3 168.952 167.823 169.239 168.168 169.484C168.647 169.816 168.935 170.196 169.319 171.004C169.596 171.591 170.021 172.235 170.262 172.438C170.502 172.641 170.965 172.884 171.293 172.982C171.665 173.109 172.213 173.144 172.701 173.076C173.159 173.024 173.631 172.941 173.778 172.895C173.969 172.832 174.134 172.962 174.79 174.046L174.026 174.4C173.601 174.6 173.045 174.98 172.768 175.236C172.506 175.507 172.173 175.927 172.029 176.167C171.785 176.571 171.638 176.647 170.605 176.828C169.971 176.958 169.351 177.072 169.219 177.119C169.057 177.166 168.933 176.887 168.708 175.825C168.532 175.073 168.154 173.792 167.859 172.983C167.563 172.174 166.978 170.852 166.564 170.045C166.15 169.238 165.828 168.563 165.842 168.533C165.856 168.503 166.004 168.501 166.168 168.557ZM133.743 169.804C133.817 169.803 133.925 170.023 133.959 170.289C134.008 170.554 134.131 171.662 134.224 172.756C134.367 174.175 134.385 175.225 134.287 176.381C134.214 177.286 134.07 178.369 133.959 178.8C133.834 179.231 133.577 179.769 133.388 179.994C133.04 180.4 133.025 180.4 132.813 180.108C132.677 179.947 132.491 179.492 132.395 179.079C132.268 178.593 132.224 177.764 132.264 176.639C132.292 175.706 132.431 174.371 132.582 173.673C132.733 172.974 133.009 171.83 133.218 171.116C133.413 170.402 133.654 169.806 133.743 169.804ZM165.495 169.842C165.524 169.841 165.723 170.193 165.952 170.618C166.167 171.044 166.552 171.881 166.799 172.483C167.046 173.086 167.358 173.984 167.5 174.47C167.627 174.956 167.834 175.796 168.112 177.345L167.347 177.581C166.92 177.707 166.507 177.817 166.418 177.819C166.344 177.82 166.262 177.363 166.252 176.756C166.241 176.164 166.068 174.687 165.854 173.462C165.626 172.252 165.411 170.983 165.346 170.659C165.296 170.334 165.291 170.023 165.349 169.963C165.407 169.903 165.465 169.842 165.495 169.842ZM140.578 171.268C140.638 171.341 140.575 171.949 140.424 172.648C140.274 173.346 140.025 174.342 139.856 174.878C139.688 175.414 139.376 176.189 139.161 176.592C138.931 177.011 138.44 177.715 137.323 178.993L137.063 177.665C136.917 176.942 136.781 175.953 136.773 175.494C136.765 175.021 136.858 174.383 136.986 174.084C137.113 173.771 137.343 173.353 137.517 173.157C137.706 172.962 138.306 172.581 138.864 172.305C139.436 172.029 140.022 171.663 140.182 171.483C140.341 171.302 140.518 171.21 140.578 171.268ZM203.615 170.953C203.676 171.07 203.921 172.368 204.154 173.83C204.401 175.291 204.643 177.285 204.705 178.261C204.784 179.429 204.783 180.184 204.684 180.452C204.585 180.705 204.366 180.901 204.115 180.965C203.894 181.013 203.168 180.967 202.515 180.845C201.861 180.723 201.104 180.559 200.285 180.336L200.385 179.269C200.434 178.676 200.652 177.591 200.846 176.848C201.041 176.119 201.449 174.913 201.762 174.168C202.06 173.437 202.574 172.362 202.904 171.779C203.335 171.017 203.523 170.791 203.615 170.953ZM145.597 173.89C145.656 173.889 145.836 174.019 146.002 174.179C146.168 174.353 146.571 174.583 146.899 174.696C147.227 174.809 148.355 175.011 149.394 175.156C150.432 175.3 151.591 175.532 151.978 175.673C152.351 175.8 152.815 176.102 152.981 176.322C153.224 176.628 153.303 176.923 153.282 177.427C153.275 177.871 153.079 178.525 152.751 179.242C152.466 179.854 151.56 181.409 149.21 185.002L148.733 184.803C148.465 184.704 148.109 184.666 147.888 184.729C147.697 184.792 147.403 184.945 147.273 185.081C147.098 185.246 147.014 185.544 147.02 185.899C147.027 186.299 147.15 186.548 147.451 186.839C147.798 187.173 147.946 187.2 148.964 187.005L148.884 187.495C148.844 187.762 148.76 188.059 148.718 188.164C148.646 188.298 148.362 188.155 147.747 187.663C147.252 187.286 146.559 186.573 146.18 186.091C145.802 185.61 145.346 184.922 145.147 184.555C144.963 184.188 144.654 183.439 144.466 182.865C144.217 182.159 144.084 181.317 144.004 180.134C143.938 178.892 143.969 178.137 144.132 177.32C144.255 176.711 144.506 175.833 144.705 175.385C144.905 174.938 145.162 174.415 145.277 174.236C145.392 174.041 145.538 173.891 145.597 173.89ZM178.612 174.216C179.16 174.222 180.613 174.389 181.831 174.619C183.063 174.834 184.564 175.178 185.175 175.375C185.8 175.571 186.903 176.026 187.635 176.398C188.545 176.841 189.325 177.389 190.077 178.072C190.829 178.755 191.343 179.382 191.649 179.969C191.941 180.541 192.144 181.189 192.2 181.81C192.269 182.415 192.235 182.993 192.138 183.365C192.04 183.692 191.753 184.23 191.522 184.56C191.276 184.89 190.738 185.447 190.33 185.794C189.921 186.127 189.161 186.673 188.634 186.993C188.121 187.313 186.991 187.866 186.139 188.251C185.302 188.621 183.846 189.149 182.904 189.447C181.976 189.73 180.415 190.157 179.442 190.381C178.469 190.605 176.816 190.915 175.753 191.067C174.587 191.235 172.813 191.37 171.17 191.398C169.306 191.431 168.091 191.378 167.096 191.218C166.324 191.083 165.493 190.965 165.241 190.939C165.004 190.914 164.602 190.803 164.348 190.674C164.109 190.545 163.752 190.447 163.575 190.45C163.397 190.454 163.278 190.411 163.307 190.352C163.35 190.292 162.976 190.061 162.484 189.848C161.768 189.535 161.497 189.303 161.072 188.688C160.783 188.264 160.432 187.648 160.279 187.326C160.094 186.914 160.01 186.368 159.996 185.554C159.982 184.726 160.075 184.132 160.287 183.551C160.442 183.104 160.742 182.492 160.959 182.207C161.161 181.922 161.67 181.395 162.078 181.048C162.501 180.685 163.277 180.168 163.79 179.878C164.318 179.602 164.876 179.326 165.037 179.264C165.332 179.185 165.333 179.214 165.235 180.4C165.187 181.067 165.047 182.358 164.915 183.278C164.798 184.183 164.751 184.894 164.81 184.863C164.868 184.833 164.928 184.861 164.929 184.92C164.93 184.98 164.858 185.099 164.771 185.175C164.698 185.265 164.619 185.799 164.614 186.362C164.609 186.954 164.679 187.545 164.786 187.735C164.923 187.955 165.117 188.055 165.413 188.05C165.664 188.046 166.062 187.905 166.296 187.739C166.544 187.571 166.732 187.331 166.73 187.213C166.728 187.095 166.859 186.929 167.02 186.838C167.181 186.761 167.486 186.386 167.672 186.012C167.872 185.639 168.029 185.296 167.999 185.237C167.983 185.178 168.051 184.851 168.164 184.523C168.262 184.196 168.404 183.868 168.476 183.778C168.534 183.703 168.689 183.256 168.815 182.81C168.925 182.364 169.051 181.089 169.159 177.949L170.162 177.768C170.708 177.67 171.225 177.587 171.299 177.586C171.388 177.584 171.451 177.835 171.457 178.145C171.462 178.441 171.296 179.125 171.084 179.662C170.886 180.198 170.706 180.927 170.698 181.297C170.689 181.667 170.638 182.097 170.581 182.261C170.51 182.425 170.504 182.899 170.57 183.297C170.636 183.711 170.764 184.271 170.858 184.55C170.952 184.83 171.107 185.257 171.2 185.507C171.293 185.742 171.687 186.223 172.048 186.572C172.424 186.936 173.069 187.384 173.472 187.584C173.89 187.769 174.724 188.065 175.333 188.217C176.285 188.467 176.907 188.501 179.482 188.456C181.924 188.428 182.766 188.354 183.769 188.114C184.462 187.954 185.493 187.655 186.051 187.438C186.625 187.221 187.418 186.852 187.813 186.623C188.224 186.394 188.91 185.864 189.333 185.471C189.842 184.989 190.261 184.404 190.561 183.762C190.903 183.002 191 182.615 190.973 181.905C190.962 181.298 190.834 180.768 190.588 180.224C190.373 179.784 189.904 179.17 189.527 178.822C189.166 178.488 188.492 178.041 188.03 177.812C187.582 177.598 186.747 177.272 186.167 177.089C185.601 176.892 184.635 176.657 184.011 176.564C183.402 176.457 182.008 176.303 180.897 176.249C179.549 176.154 178.853 176.166 178.766 176.271C178.694 176.361 178.473 176.424 178.28 176.428C178.103 176.431 177.909 176.375 177.863 176.287C177.833 176.213 177.58 176.144 177.313 176.149C176.899 176.171 176.794 176.084 176.564 175.614C176.303 175.086 176.302 175.041 176.535 174.8C176.665 174.65 176.959 174.526 177.196 174.522C177.433 174.518 177.609 174.456 177.608 174.367C177.607 174.293 178.049 174.226 178.612 174.216ZM174.703 175.025C174.762 175.009 174.852 175.081 174.883 175.155C174.929 175.243 174.683 175.543 174.348 175.845C174.012 176.132 173.558 176.421 173.352 176.454C173.16 176.502 172.953 176.506 172.908 176.462C172.877 176.418 173.007 176.194 173.195 175.984C173.399 175.773 173.793 175.47 174.072 175.317C174.365 175.149 174.644 175.026 174.703 175.025ZM175.771 175.983C175.848 176.144 175.836 176.308 175.734 176.398C175.627 176.499 175.513 176.491 175.393 176.374C175.242 176.229 175.241 176.155 175.415 175.96C175.619 175.734 175.648 175.734 175.771 175.983ZM178.478 176.72C178.67 176.717 178.894 176.787 178.954 176.86C179 176.948 179.4 177 179.844 176.992C180.274 176.985 181.37 177.069 182.29 177.172C183.209 177.274 184.486 177.489 185.14 177.655C185.794 177.806 186.777 178.144 187.299 178.387C187.837 178.629 188.63 179.163 189.052 179.57C189.609 180.093 189.882 180.488 190.024 180.959C190.119 181.343 190.174 181.949 190.122 182.364C190.085 182.779 189.903 183.374 189.716 183.703C189.53 184.032 189.08 184.573 188.716 184.905C188.366 185.237 187.679 185.722 187.21 185.997C186.726 186.257 185.904 186.627 185.374 186.813C184.859 186.985 183.857 187.254 183.164 187.385C182.382 187.532 181.007 187.645 179.512 187.656C178.003 187.682 176.7 187.631 176.031 187.495C175.437 187.387 174.679 187.193 174.351 187.065C174.023 186.938 173.485 186.651 173.156 186.435C172.826 186.218 172.359 185.753 172.102 185.402C171.859 185.051 171.616 184.73 171.571 184.686C171.511 184.643 171.462 184.348 171.441 184.022C171.421 183.697 171.341 183.373 171.265 183.285C171.19 183.198 171.185 182.946 171.254 182.664C171.352 182.322 171.334 182.159 171.216 182.146C171.097 182.119 171.11 182 171.268 181.731C171.383 181.522 171.523 181.105 171.563 180.808C171.616 180.496 171.758 180.138 171.904 180.003C172.137 179.791 172.182 179.805 172.454 180.141C172.62 180.345 173.069 180.604 173.426 180.731C173.843 180.857 174.51 180.919 175.131 180.879C176.048 180.833 176.254 180.77 176.794 180.332C177.13 180.074 177.449 179.699 177.491 179.52C177.532 179.327 177.462 178.736 177.319 178.191C177.177 177.646 177.065 177.159 177.064 177.115C177.063 177.071 177.27 177.037 177.506 177.033C177.758 177.029 177.994 176.966 178.037 176.876C178.08 176.801 178.271 176.724 178.478 176.72ZM175.58 176.919C175.876 176.914 176.203 176.982 176.323 177.054C176.457 177.126 176.581 177.434 176.601 177.745C176.621 178.055 176.7 178.335 176.76 178.379C176.835 178.422 176.897 178.598 176.915 178.79C176.948 178.967 176.891 179.116 176.803 179.118C176.729 179.119 176.599 179.329 176.514 179.567C176.388 179.984 176.33 180.014 175.458 180.103C174.955 180.142 174.393 180.166 174.23 180.14C174.067 180.113 173.635 179.972 173.262 179.801C172.904 179.645 172.545 179.399 172.498 179.252C172.42 179.046 172.607 178.747 173.218 178.115C173.668 177.633 174.179 177.239 174.342 177.237C174.505 177.234 174.726 177.156 174.843 177.08C174.975 177.003 175.299 176.924 175.58 176.919ZM168.039 178.249C168.172 178.232 168.264 178.423 168.284 178.719C168.304 178.985 168.289 179.829 168.243 180.599C168.197 181.37 168.012 182.617 167.832 183.345C167.668 184.088 167.443 184.788 167.356 184.908C167.255 185.028 167.026 185.476 166.826 185.879C166.626 186.312 166.264 186.777 165.474 187.294L165.366 186.23C165.279 185.462 165.301 185.047 165.443 184.719C165.543 184.48 165.744 183.278 165.9 182.047C166.042 180.83 166.183 179.599 166.208 179.318C166.244 178.843 166.302 178.783 167.038 178.533C167.479 178.378 167.936 178.251 168.039 178.249ZM136.547 181.182C136.58 181.374 136.527 181.716 136.427 181.954C136.313 182.193 136.053 182.553 135.834 182.749C135.616 182.945 135.337 183.098 135.204 183.1C135.085 183.103 134.981 183.03 134.979 182.927C134.977 182.823 135.091 182.57 135.221 182.36C135.35 182.151 135.683 181.73 135.974 181.414C136.467 180.858 136.482 180.843 136.547 181.182ZM121.557 181.459C122.224 181.477 122.803 181.585 123.161 181.771C123.475 181.914 123.685 182.088 123.612 182.148C123.553 182.194 122.673 182.638 121.66 183.13C120.486 183.683 119.559 184.04 119.087 184.092C118.584 184.146 118.302 184.106 118.182 183.975C118.031 183.815 118.057 183.637 118.242 183.175C118.384 182.846 118.717 182.411 118.994 182.199C119.272 182.002 119.727 181.742 120.006 181.634C120.3 181.525 120.965 181.44 121.557 181.459ZM197.302 180.699C197.731 180.692 198.369 180.769 199.394 181.018L199.59 182.051C199.689 182.626 199.893 183.318 200.046 183.597C200.199 183.875 200.565 184.461 200.868 184.885C201.171 185.294 201.385 185.675 201.341 185.706C201.312 185.721 200.741 186.057 200.096 186.423C199.451 186.79 198.441 187.474 197.828 187.943C197.229 188.412 196.413 189.152 196.007 189.603C195.6 190.054 195.224 190.564 195.168 190.758C195.113 190.966 195.176 191.231 195.344 191.48C195.602 191.86 195.632 191.874 196.71 191.752C197.331 191.682 198.127 191.535 198.481 191.425C198.849 191.3 199.451 191.053 199.803 190.869C200.17 190.7 200.726 190.335 201.033 190.063C201.353 189.791 201.774 189.266 201.974 188.892C202.247 188.399 202.357 187.938 202.457 185.997L203.706 185.517C204.397 185.238 205.325 184.97 205.768 184.903C206.462 184.802 206.655 184.843 207 185.089C207.255 185.277 207.407 185.541 207.411 185.763C207.415 185.97 207.361 186.282 207.305 186.475C207.234 186.654 206.916 187.074 206.611 187.405C206.306 187.736 205.693 188.265 205.24 188.569C204.801 188.872 203.717 189.498 202.822 189.958C201.942 190.432 200.356 191.17 199.298 191.618C198.255 192.051 196.137 192.857 194.593 193.402C193.063 193.947 190.546 194.776 189 195.247C186.335 196.063 186.202 196.095 185.976 195.832C185.855 195.686 185.525 195.455 185.227 195.313C184.838 195.127 184.26 195.048 182.854 195.043C181.832 195.017 181.076 194.956 181.148 194.88C181.236 194.82 182.002 194.584 182.842 194.362C183.696 194.14 184.991 193.703 185.711 193.365C186.445 193.041 187.603 192.385 188.276 191.929C188.963 191.458 189.884 190.746 190.321 190.339C190.772 189.931 191.456 189.224 191.862 188.773C192.269 188.321 192.921 187.511 193.311 186.971C193.701 186.431 194.364 185.398 194.78 184.651C195.197 183.918 195.697 182.874 195.909 182.337C196.107 181.801 196.334 181.219 196.39 181.041C196.503 180.743 196.621 180.696 197.302 180.699ZM127.416 182.141C127.934 182.162 128.47 182.315 128.874 182.545C129.277 182.775 129.624 183.124 129.838 183.535C130.083 184.019 130.148 184.329 130.1 184.966C130.063 185.411 129.633 187.061 128.215 191.438L126.979 191.874C126.302 192.108 124.756 192.593 123.534 192.926C122.326 193.258 120.837 193.624 120.217 193.738C119.612 193.838 118.414 193.918 117.555 193.889C116.178 193.868 115.926 193.813 115.209 193.441C114.775 193.197 114.266 192.865 113.755 192.386L114.493 192.269C114.906 192.218 117.089 191.736 119.359 191.222C121.63 190.709 124.004 190.209 124.639 190.109C125.274 190.009 126.025 189.818 126.334 189.694C126.642 189.556 127.038 189.297 127.212 189.116C127.43 188.905 127.544 188.622 127.538 188.311C127.517 187.957 127.395 187.722 127.034 187.417C126.764 187.2 126.108 186.901 124.606 186.512L125.02 185.661C125.277 185.124 125.43 184.574 125.437 184.085C125.445 183.685 125.391 183.139 125.327 182.873C125.2 182.387 125.215 182.387 125.908 182.241C126.291 182.161 126.971 182.104 127.416 182.141ZM112.046 183.549C113.926 183.546 114.282 183.584 114.909 183.869C115.311 184.055 115.656 184.315 115.689 184.477C115.736 184.639 115.683 184.981 115.554 185.22C115.44 185.473 115.004 185.94 114.581 186.288C114.099 186.681 113.732 186.865 113.583 186.794C113.464 186.751 112.868 186.554 112.243 186.358C111.633 186.176 110.668 185.986 110.09 185.952C109.215 185.893 108.965 185.942 108.437 186.217C108.099 186.401 107.691 186.763 107.533 187.032C107.375 187.302 107.205 187.719 107.15 187.957C107.081 188.269 107.13 188.534 107.312 188.813C107.465 189.047 107.779 189.278 108.121 189.361C108.434 189.459 108.967 189.479 109.336 189.414C109.705 189.348 110.398 189.188 110.884 189.061C111.37 188.919 112.252 188.578 112.839 188.287C113.734 187.842 113.97 187.793 114.715 188.062L113.983 188.489C113.587 188.733 113.076 189.126 112.859 189.397C112.641 189.652 112.398 190.115 112.314 190.427C112.245 190.725 112.224 191.184 112.369 191.862L110.774 192.083C109.888 192.202 108.632 192.342 107.982 192.398C107.332 192.468 106.177 192.444 105.391 192.369C104.62 192.279 103.714 192.102 103.386 191.96C103.058 191.832 102.593 191.485 102.366 191.208C101.958 190.756 101.927 190.653 101.985 189.749C102.019 189.127 102.156 188.518 102.399 188.04C102.599 187.622 103.164 186.901 103.688 186.404C104.198 185.921 105.046 185.3 105.559 185.024C106.087 184.748 106.851 184.424 107.248 184.284C107.66 184.144 108.426 183.923 108.942 183.796C109.59 183.636 110.61 183.559 112.046 183.549ZM139.83 185.255C140.318 185.246 140.881 185.266 141.059 185.293C141.267 185.333 141.388 185.465 141.391 185.657C141.394 185.82 141.091 186.269 140.713 186.646C140.276 187.068 139.793 187.387 139.425 187.482C139.101 187.577 137.776 188 136.481 188.422C135.186 188.844 134.096 189.174 134.051 189.13C134.021 189.086 134.206 188.698 134.48 188.279C134.769 187.845 135.291 187.229 135.64 186.897C136.005 186.58 136.545 186.186 136.853 186.017C137.162 185.864 137.75 185.632 138.177 185.506C138.604 185.38 139.342 185.263 139.83 185.255ZM148.169 185.539C148.302 185.521 148.51 185.607 148.616 185.708C148.767 185.869 148.739 185.958 148.506 186.199C148.23 186.485 148.2 186.485 147.959 186.253C147.794 186.108 147.731 185.916 147.803 185.782C147.86 185.648 148.021 185.541 148.169 185.539ZM109.883 186.814C110.341 186.806 111.098 186.896 111.574 187.036C112.065 187.161 112.482 187.346 112.513 187.419C112.544 187.507 112.031 187.768 111.354 188.017C110.693 188.265 109.69 188.505 109.144 188.573C108.243 188.678 108.153 188.65 108.06 188.385C107.998 188.223 108.037 187.897 108.151 187.658C108.25 187.42 108.512 187.149 108.702 187.027C108.908 186.92 109.439 186.822 109.883 186.814ZM123.924 187.309C124.027 187.292 124.458 187.359 124.888 187.44C125.319 187.536 125.87 187.689 126.109 187.818C126.362 187.932 126.617 188.106 126.663 188.194C126.724 188.281 126.697 188.445 126.595 188.565C126.509 188.685 126.26 188.837 126.054 188.915C125.863 189.007 124.934 189.215 123.99 189.38C123.06 189.559 120.907 190.026 119.197 190.411C117.501 190.796 115.541 191.245 114.847 191.39C114.169 191.535 113.49 191.621 113.341 191.579C113.192 191.522 113.07 191.332 113.066 191.11C113.063 190.903 113.16 190.546 113.274 190.292C113.403 190.053 113.707 189.678 113.97 189.481C114.233 189.269 114.761 188.964 115.833 188.471L117.14 188.774C117.943 188.953 118.922 189.069 119.691 189.055C120.742 189.037 121.096 188.972 121.756 188.634C122.211 188.419 122.827 188.038 123.148 187.781C123.469 187.524 123.82 187.311 123.924 187.309ZM121.112 187.358C121.615 187.349 122.045 187.386 122.046 187.445C122.047 187.504 121.799 187.686 121.491 187.84C121.183 187.993 120.579 188.167 120.121 188.219C119.677 188.256 118.997 188.268 118.611 188.216C118.225 188.178 117.898 188.08 117.897 187.991C117.895 187.917 118.086 187.796 118.307 187.747C118.528 187.684 119.044 187.586 119.443 187.52C119.856 187.454 120.61 187.381 121.112 187.358ZM201.548 186.531C201.607 186.53 201.627 186.826 201.589 187.197C201.566 187.567 201.413 188.117 201.271 188.431C201.128 188.729 200.78 189.179 200.503 189.421C200.241 189.662 199.788 189.981 199.494 190.12C199.216 190.272 198.583 190.506 198.097 190.632C197.611 190.774 196.932 190.919 196.593 190.97C196.15 191.036 195.957 191.025 195.955 190.892C195.953 190.788 196.301 190.353 196.723 189.946C197.145 189.524 197.918 188.874 198.43 188.51C198.956 188.145 199.849 187.553 200.405 187.188C200.976 186.837 201.489 186.532 201.548 186.531ZM142.686 187.766C143.516 187.796 143.62 187.838 144.073 188.363C144.421 188.757 144.574 189.08 144.58 189.42C144.572 189.776 144.457 190 144.064 190.347C143.772 190.604 143.097 190.956 142.494 191.144C141.626 191.44 141.064 191.509 139.466 191.537C138.105 191.561 137.467 191.513 137.317 191.397C137.167 191.237 137.311 191.013 138.14 190.184C138.707 189.626 139.465 188.917 139.815 188.615C140.209 188.283 140.751 187.992 141.134 187.897C141.503 187.816 142.198 187.76 142.686 187.766ZM149.448 190.135C149.582 190.162 149.717 190.307 149.735 190.47C149.767 190.632 149.757 190.869 149.7 190.989C149.629 191.182 149.584 191.168 149.402 190.92C149.281 190.759 149.188 190.509 149.185 190.361C149.197 190.198 149.285 190.108 149.448 190.135ZM155.944 190.006C156.373 189.984 156.907 190.049 157.13 190.134C157.354 190.219 157.728 190.449 157.954 190.667C158.18 190.885 158.377 191.148 158.378 191.252C158.38 191.355 158.219 191.462 158.042 191.509C157.865 191.542 157.304 191.626 156.817 191.693C156.123 191.78 155.752 191.742 155.037 191.502C154.546 191.333 154.009 191.076 153.843 190.916C153.677 190.756 153.6 190.58 153.673 190.52C153.746 190.459 154.114 190.32 154.482 190.21C154.865 190.114 155.515 190.014 155.944 190.006ZM132.598 190.71C132.642 190.694 132.684 191.389 132.699 192.218C132.724 193.668 132.756 193.801 133.292 194.842C133.66 195.561 134.099 196.146 134.58 196.567C134.986 196.915 135.705 197.391 136.197 197.604C136.69 197.832 137.627 198.142 138.282 198.308C139.218 198.543 139.915 198.605 141.469 198.593C142.964 198.567 143.717 198.494 144.424 198.275C144.954 198.132 145.704 197.808 146.1 197.594C146.495 197.365 146.977 196.987 147.165 196.732C147.368 196.462 147.494 196.075 147.489 195.764C147.484 195.483 147.388 195.1 147.267 194.924C147.039 194.603 147.053 194.573 147.581 194.253C147.888 194.055 148.502 193.585 148.968 193.192C149.435 192.799 149.859 192.466 149.918 192.465C149.977 192.464 150.276 192.607 151.158 193.11L150.5 193.61C150.047 193.943 149.801 194.258 149.718 194.585C149.649 194.883 149.67 195.223 149.778 195.487C149.871 195.737 150.174 196.102 150.459 196.334C150.759 196.551 151.326 196.822 151.728 196.948C152.145 197.074 152.932 197.238 153.481 197.332C154.031 197.426 154.492 197.551 154.493 197.61C154.494 197.67 153.936 197.916 153.274 198.165C152.612 198.413 151.567 198.727 150.947 198.871C150.343 199 149.28 199.196 148.587 199.297C147.907 199.383 146.4 199.528 145.261 199.592C144.123 199.671 142.065 199.663 140.673 199.598C139.295 199.534 137.427 199.374 136.522 199.271C135.632 199.153 134.162 198.898 133.256 198.692C132.364 198.47 131.173 198.106 130.621 197.864C129.726 197.465 129.576 197.335 129.269 196.719C129.023 196.19 128.91 195.659 128.846 194.535C128.802 193.722 128.816 192.833 128.886 192.566C128.996 192.075 129.069 192.03 130.76 191.393C131.73 191.021 132.569 190.71 132.598 190.71ZM214.476 189.414C214.536 189.413 214.557 189.768 214.52 190.198C214.483 190.628 214.238 191.846 213.99 192.901C213.727 193.971 213.114 196.143 212.623 197.736C212.118 199.328 211.288 201.8 210.78 203.215C210.257 204.63 209.35 206.97 208.769 208.431C208.173 209.877 207.062 212.413 206.292 214.055C205.521 215.696 204.477 217.802 203.975 218.713C203.473 219.64 203.087 220.431 203.103 220.475C203.118 220.519 202.903 220.908 202.6 221.343C202.297 221.777 201.719 222.616 201.3 223.186C200.881 223.756 200.55 224.339 200.553 224.487C200.54 224.62 200.382 224.875 200.178 225.041C199.988 225.207 199.814 225.403 199.83 225.461C199.831 225.521 199.324 226.181 198.701 226.917C198.077 227.668 197.193 228.72 196.713 229.246C196.234 229.787 194.926 231.172 193.807 232.346C192.687 233.505 191.057 235.058 190.182 235.814C189.321 236.554 187.876 237.69 186.969 238.342C186.078 238.994 184.614 239.908 183.718 240.353C182.838 240.812 181.575 241.367 180.927 241.585C180.28 241.819 178.764 242.274 177.541 242.621C176.333 242.953 173.842 243.559 172.013 243.947C170.2 244.348 167.81 244.819 166.703 245.001C165.611 245.183 163.588 245.5 162.2 245.687C160.827 245.888 158.566 246.106 154.692 246.336L154.921 245.888C155.035 245.649 155.427 245.169 155.776 244.837C156.125 244.49 156.709 244.036 157.061 243.823C157.427 243.594 158.176 243.241 158.72 243.024C159.264 242.807 160.22 242.48 160.853 242.306C161.487 242.132 163.183 241.762 164.644 241.5C166.104 241.237 168.095 240.788 169.067 240.534C170.04 240.266 171.541 239.795 172.38 239.485C173.233 239.189 174.717 238.556 175.686 238.11C176.655 237.649 178.151 236.853 178.985 236.32C179.835 235.802 181.166 234.876 181.954 234.27C182.743 233.679 184.171 232.381 185.146 231.417C186.106 230.438 187.427 228.964 188.064 228.139C188.701 227.314 189.698 225.905 190.274 224.992C190.851 224.094 191.784 222.479 192.358 221.403C192.931 220.342 193.846 218.461 194.387 217.223C194.943 215.999 196.121 213.137 197.015 210.886C197.908 208.635 198.801 206.385 199 205.893C199.184 205.401 199.782 204.058 200.309 202.909C200.852 201.76 201.567 200.356 201.898 199.773C202.243 199.205 202.805 198.321 203.137 197.827C203.483 197.333 204.179 196.506 204.674 195.98C205.168 195.453 206.335 194.5 207.256 193.847C208.192 193.195 209.509 192.298 210.182 191.857C210.87 191.416 212.086 190.684 212.892 190.241C213.698 189.783 214.417 189.415 214.476 189.414ZM160.297 191.766C160.416 191.823 160.758 191.906 161.025 191.946C161.308 192 161.606 192.128 161.696 192.23C161.787 192.332 161.951 192.418 162.04 192.416C162.129 192.4 162.338 192.53 162.489 192.69C162.64 192.865 162.835 192.995 162.908 192.978C162.997 192.977 163.237 193.136 163.433 193.339C163.644 193.543 164.316 193.901 164.927 194.127C165.552 194.353 166.416 194.634 166.862 194.745C167.323 194.87 168.288 195.061 169.016 195.181C169.817 195.315 171.61 195.402 173.461 195.429C175.237 195.442 176.422 195.496 176.202 195.574C176.01 195.636 175.008 195.876 173.991 196.116C172.988 196.355 171.427 196.797 168.911 197.655L167.275 197.21C166.382 196.959 164.967 196.451 164.147 196.08C163.251 195.667 162.339 195.105 161.828 194.67C161.377 194.278 160.758 193.578 160.439 193.125C160.029 192.54 159.89 192.202 159.96 191.979C160.031 191.771 160.133 191.71 160.297 191.766ZM153.887 193.432C154.375 193.423 155.013 193.486 155.295 193.555C155.593 193.639 155.981 193.854 156.162 194.029C156.358 194.203 156.511 194.511 156.515 194.718C156.518 194.926 156.35 195.447 156.165 195.879C155.965 196.312 155.72 196.657 155.616 196.658C155.512 196.66 155.077 196.327 154.655 195.905C154.234 195.483 153.644 194.798 153.341 194.374C153.037 193.95 152.824 193.569 152.882 193.524C152.94 193.478 153.384 193.441 153.887 193.432ZM142.129 193.992C142.988 194.007 144.041 194.122 144.472 194.248C144.904 194.373 145.262 194.53 145.263 194.589C145.264 194.648 144.853 194.892 144.339 195.123C143.84 195.369 143.061 195.664 142.604 195.79C142.162 195.901 141.557 196.016 141.247 196.021C140.936 196.026 140.461 195.931 140.163 195.818C139.879 195.704 139.564 195.443 139.456 195.223C139.319 194.959 139.301 194.782 139.416 194.602C139.502 194.468 139.81 194.255 140.074 194.162C140.412 194.022 141.107 193.966 142.129 193.992ZM151.821 193.779L152.123 194.158C152.29 194.378 152.759 194.961 153.153 195.473C153.547 195.984 153.836 196.453 153.793 196.513C153.749 196.572 153.275 196.507 152.724 196.368C152.174 196.23 151.534 196.019 151.31 195.905C151.086 195.79 150.801 195.543 150.664 195.339C150.511 195.075 150.478 194.898 150.578 194.674C150.664 194.51 150.97 194.238 151.278 194.07L151.821 193.779ZM182.423 195.82C183.445 195.832 184.452 195.903 184.676 196.003C184.914 196.088 185.094 196.203 185.095 196.262C185.096 196.321 183.918 196.682 182.489 197.063C181.045 197.428 178.907 197.939 177.728 198.182C175.648 198.633 175.545 198.634 174.032 198.468C173.172 198.38 172.118 198.235 171.688 198.169C171.272 198.087 170.915 197.96 170.913 197.886C170.912 197.798 171.883 197.485 173.077 197.197C174.286 196.895 175.922 196.526 176.734 196.379C177.545 196.231 178.741 196.047 179.391 195.962C180.041 195.877 181.402 195.823 182.423 195.82ZM157.809 197.627C158.386 197.646 159.572 197.714 160.476 197.772C161.365 197.831 162.403 197.961 162.76 198.058C163.117 198.156 163.491 198.342 163.582 198.488C163.718 198.678 163.676 198.812 163.386 199.128C163.182 199.339 162.757 199.583 162.433 199.677C162.021 199.788 161.606 199.795 161.027 199.672C160.581 199.591 159.778 199.324 159.241 199.097C158.704 198.869 157.957 198.483 157.553 198.253C157.164 198.023 156.834 197.777 156.819 197.718C156.803 197.644 157.246 197.607 157.809 197.627ZM184.478 197.368C184.507 197.353 184.524 197.456 184.526 197.575C184.528 197.693 184.28 197.89 183.971 198.014C183.677 198.122 183.029 198.297 182.542 198.394C182.055 198.491 181.317 198.608 180.918 198.659C180.446 198.712 180.223 198.686 180.325 198.595C180.398 198.52 181.369 198.207 182.46 197.922C183.55 197.621 184.463 197.369 184.478 197.368ZM169.223 198.552C169.297 198.581 169.876 198.689 170.485 198.782C171.093 198.875 171.658 198.998 171.733 199.056C171.808 199.129 171.484 199.223 170.997 199.291C170.525 199.359 169.785 199.386 169.385 199.364C168.97 199.326 168.539 199.245 168.42 199.188C168.241 199.102 168.284 199.028 168.635 198.799C168.869 198.633 169.133 198.524 169.223 198.552Z" fill="#257CA9"/>
</svg>
